<?xml version="1.0" standalone="no"?>
<!DOCTYPE svg PUBLIC "-//W3C//DTD SVG 20010904//en-us"
 "http://www.w3.org/TR/2001/REC-SVG-20010904/DTD/svg10.dtd">
<svg version="1.0" xmlns="http://www.w3.org/2000/svg"
 width="1001.000000pt" height="1001.000000pt" viewBox="0 0 1001.000000 1001.000000"
 preserveAspectRatio="xMidYMid meet">
<metadata>
Created by potrace 1.14, written by Peter Selinger 2001-2017
</metadata>
<g transform="translate(0.000000,1001.000000) scale(0.100000,-0.100000)"
fill="#000000" stroke="none">
<path d="M3420 9987 c-3 -2 -52 -7 -110 -11 -58 -3 -116 -8 -130 -11 -14 -2
-47 -6 -75 -10 -356 -39 -737 -183 -960 -362 -230 -186 -379 -460 -424 -783
-16 -110 -6 -409 19 -560 22 -141 36 -231 44 -290 2 -19 12 -89 20 -155 9 -66
19 -138 21 -160 8 -65 14 -108 19 -145 5 -33 8 -56 21 -175 3 -27 8 -61 10
-75 2 -14 7 -50 11 -80 3 -30 7 -66 9 -80 2 -14 6 -52 10 -85 3 -33 8 -71 10
-85 2 -14 6 -50 10 -80 3 -30 7 -71 10 -90 3 -19 7 -54 10 -77 3 -24 7 -60 10
-80 10 -87 25 -212 30 -268 4 -33 8 -71 10 -85 5 -31 12 -89 20 -155 11 -100
16 -141 20 -175 3 -19 7 -57 10 -85 5 -44 19 -162 30 -250 2 -16 6 -55 9 -85
4 -30 9 -71 11 -90 3 -19 7 -53 10 -75 12 -113 16 -150 30 -260 8 -66 17 -145
21 -175 3 -30 8 -66 9 -80 2 -14 6 -50 9 -80 3 -30 8 -71 11 -90 8 -57 14
-111 20 -173 4 -32 8 -67 10 -77 2 -10 7 -50 10 -87 4 -37 9 -77 11 -88 2 -11
6 -42 9 -70 3 -27 10 -84 15 -125 5 -41 12 -95 15 -120 3 -25 8 -67 11 -95 3
-27 7 -61 9 -75 2 -14 7 -45 10 -70 3 -25 9 -79 15 -120 5 -41 11 -95 14 -120
3 -25 13 -99 21 -165 8 -66 17 -136 20 -155 11 -91 26 -197 29 -220 3 -14 10
-65 16 -115 6 -49 13 -101 15 -115 7 -53 37 -276 41 -305 2 -16 6 -47 10 -68
7 -42 8 -49 23 -172 7 -49 14 -97 16 -105 2 -8 7 -37 10 -65 3 -27 12 -90 20
-140 8 -49 17 -108 20 -130 3 -22 10 -65 15 -95 5 -30 11 -68 13 -85 3 -16 13
-73 22 -125 9 -52 18 -108 20 -123 2 -16 6 -40 9 -55 3 -15 8 -40 11 -57 23
-143 88 -434 110 -500 86 -249 245 -423 472 -514 76 -31 168 -57 228 -67 22
-3 60 -10 85 -16 56 -13 421 -19 515 -8 39 5 95 11 125 14 84 9 259 42 370 71
412 105 844 310 1220 579 114 81 345 262 389 304 10 9 57 53 106 97 179 162
442 435 581 605 16 19 31 37 35 40 17 15 268 337 356 458 248 341 387 565 523
847 97 200 196 443 231 565 5 19 14 44 19 55 14 33 85 273 95 325 2 8 12 51
23 95 20 79 56 248 67 315 3 19 8 46 10 60 3 14 8 43 10 64 3 22 7 51 10 65 2
14 7 46 10 71 2 25 7 66 10 92 25 200 32 373 29 668 -1 179 -5 341 -7 360 -3
19 -8 69 -11 110 -7 82 -21 184 -36 270 -5 30 -12 73 -16 95 -32 220 -155 657
-244 870 -255 610 -591 1089 -1081 1541 -94 86 -336 283 -425 344 -402 280
-695 445 -1069 604 -195 83 -469 183 -551 201 -10 2 -57 15 -104 28 -110 32
-231 60 -400 92 -44 9 -223 34 -280 40 -30 3 -68 8 -85 11 -42 6 -559 16 -565
11z m706 -1930 c314 -26 653 -145 954 -335 201 -127 492 -390 639 -577 34 -44
68 -87 74 -95 74 -95 194 -292 269 -442 152 -306 223 -558 272 -973 14 -119
15 -570 1 -660 -51 -345 -108 -564 -206 -803 -215 -516 -529 -939 -1035 -1392
-128 -115 -414 -335 -536 -412 l-26 -17 -21 92 c-11 50 -23 104 -25 119 -3 15
-12 63 -20 105 -23 112 -29 142 -51 268 -2 17 -7 41 -10 55 -8 36 -12 64 -29
165 -41 248 -48 290 -62 365 -1 8 -5 33 -9 56 -3 22 -8 52 -10 65 -2 13 -6 42
-10 64 -3 22 -12 82 -20 134 -9 51 -17 109 -20 127 -2 19 -6 49 -9 66 -11 67
-21 137 -32 223 -3 28 -7 52 -9 55 -1 3 -6 36 -10 75 -4 38 -8 72 -10 75 -2 3
-6 32 -10 64 -3 33 -8 62 -9 65 -2 3 -7 37 -11 76 -4 38 -8 72 -10 75 -2 3 -6
39 -10 80 -4 41 -8 77 -10 80 -2 3 -6 32 -9 66 -4 33 -8 71 -11 85 -2 13 -6
47 -10 74 -3 28 -8 64 -10 80 -3 17 -12 86 -20 155 -9 69 -18 141 -20 160 -3
19 -7 60 -10 90 -3 30 -7 62 -9 70 -3 8 -7 47 -11 85 -3 39 -8 81 -10 95 -2
14 -7 52 -10 85 -3 33 -8 74 -10 90 -3 17 -7 57 -10 90 -3 33 -8 74 -10 90 -2
17 -7 61 -10 99 -4 38 -8 79 -10 90 -2 12 -6 50 -10 86 -3 36 -7 83 -10 105
-5 52 -12 122 -20 210 -3 39 -8 89 -11 112 -2 23 -7 75 -9 115 -3 40 -8 93
-10 118 -3 24 -8 83 -11 130 -3 47 -7 105 -9 130 -10 104 -18 307 -19 470 l-1
175 30 5 c33 6 181 4 271 -3z"/>
</g>
</svg>
