<?xml version="1.0" encoding="utf-8"?>
<!-- Generator: Adobe Illustrator 27.3.1, SVG Export Plug-In . SVG Version: 6.00 Build 0)  -->
<svg version="1.1" id="Orange_Tribes_logos" xmlns="http://www.w3.org/2000/svg" xmlns:xlink="http://www.w3.org/1999/xlink"
	 x="0px" y="0px" viewBox="0 0 155.6 137.7" style="enable-background:new 0 0 155.6 137.7;" xml:space="preserve">
<g id="circle_logo_white_on_black_1_">
	<g id="white_logo_4_">
		<g>
			<g>
				<g id="wings_00000156575093715401963770000000830170842699273390_">
					<path d="M123.6,23.7l-0.4-0.8L104.9,25l-1.5,10.2c0.3,3.2,2.8,9,10.2,8.1c1.2-0.1,4.7-0.6,5.5-3c0.3-1.1,0-2.1-0.5-2.9
						c1.6-0.5,2.6-1.3,3-2.5c0.3-0.8,0.3-1.6,0.1-2.2c1.3-0.5,2-1.4,2.4-2.1C125.6,27.8,123.8,24.1,123.6,23.7z"/>
					<path d="M46,40.5c-2.7-0.3-3.1-1-3.1-1c-0.1-0.3,0.5-1.2,1.4-1.9l2.6-2.1l-3.4-0.4c-2.1-0.2-3.1-0.8-3.3-1.2
						c-0.1-0.4,0.2-1,0.4-1.2l1.6-2l-2.6-0.3c-1.1-0.1-1.7-0.5-2-1c-0.5-0.9-0.2-2.4,0.2-3.4l16,1.9l-0.6,7.2
						C53.2,35.5,52.5,41.3,46,40.5 M36.2,22.8l-0.4,0.8c-0.2,0.4-2,4.1-0.5,6.9c0.4,0.7,1.1,1.5,2.3,2.1c-0.2,0.7-0.2,1.4,0.1,2.3
						c0.5,1.1,1.5,1.9,3,2.5c-0.5,0.8-0.8,1.8-0.5,2.9c0.7,2.5,4.3,2.9,5.5,3c7.5,0.9,10-4.9,10.2-8.1l0.9-9.9L36.2,22.8"/>
				</g>
				<polygon points="91.7,75.8 92.9,82.9 90.6,82.9 				"/>
				<polygon points="95.5,17.1 94.4,3.3 96.7,3.3 				"/>
			</g>
			<g>
				<g>
					<path d="M68.7,97.2c0.5,0.2,1,0.3,1.6,0.4c-0.3-0.7-0.5-1.4-0.8-2.2C69.2,96,69,96.6,68.7,97.2z"/>
					<path d="M51.2,88.1c-0.2,1.3-0.3,2.5-0.6,3.7c0,0,3.3,0.6,3.5-1.5C54.2,90.3,54.5,88.2,51.2,88.1z"/>
					<path d="M22.4,86.9c-6.1,0.6-5.3,6.5-5.3,6.5c0.7,5.3,5.7,4.9,5.7,4.9c7.5,0.6,6.9-4.5,6.9-4.5C29,87.9,23.4,86.8,22.4,86.9z
						 M23.9,93.4c-0.2,0-0.5,0-0.7,0l-1-0.1l-0.1,0c0,0-0.1-0.2-0.1-0.4c0-0.5,0.1-0.9,0.2-1c0,0,0.2-0.1,0.5-0.1
						c0.5,0.1,1.5,0.5,2,1.6C24.4,93.4,24.2,93.4,23.9,93.4z"/>
				</g>
				<g>
					<path d="M83,115.9c0,2.3,0,4.7,0.7,7c2.1-0.2,4.9-1.5,4.9-3.8C88.8,117,85.4,115.6,83,115.9z"/>
					<path d="M148.6,88l0.2-1.8c0.8-0.2,6.8-1.6,6.8-1.6l-0.8-4.5c-0.4-2.3-0.7-4.4-0.9-6.4l-0.5-5.2l-5.2,0.9
						c-3.7,0.6-7.4,1.3-11.2,2l-0.6-0.6l-2.3,0.4c-3.3,0.5-6.5,1-9.8,1.5l-3.1,0.5l-0.5,1.9l-4.6,0.7l-0.4,1.6
						c-1.4-0.5-3.1-0.9-5.1-0.9c-2,0-4,0.4-6,1.1c-2,0.8-4,2-5.7,3.6l-2-0.1c-1.9-0.1-8.5-0.5-8.5-0.5l0-0.2l-1.5,0.1l-0.4,0l0,0.1
						l-12.3,1c-1.3-0.7-2.5-1.4-3.8-2.1L65,77.8l-1.5,3.8l-2.2,0.8c-1.3-1.6-3.2-3-5.9-4l-0.1-1.5l-15.5-2.4l-0.2,2.1l-4-0.2
						c-2-1.5-4.4-2.9-7.3-4.1l0,0c-1.3-0.6-5.6-2.1-10.5-2.1c-7.5,0-13.2,3.5-16.2,9.8l-1.2,2.5l0.3,0.4c-0.7,2.7-1.1,5.9-0.3,9
						c2,8.2,9.7,18.6,21.8,21.8c0.8,0.2,1.7,0.4,2.6,0.4c0,0,0,0,0,0c3.6,0,8-2,11.9-5.4l4.8,0.3c2.3,0.1,4.5,0.3,6.8,0.5l0.6,0
						c-0.1,0.4-0.1,0.8-0.2,1.2c0,0.2-0.1,0.4-0.1,0.6c-0.6,0.1-1.3,0.4-1.9,0.7l-0.3,0.1l-0.2,0.2c-2.5,1.7-3.7,4.6-2.8,7.2
						c0.8,2.3,2.6,3.8,5,4.2c0,0.7,0.1,1.5,0.1,2.1c0.2,3.8,0.3,5.9,0.9,7.4c0.9,2.8,3.1,4.4,6.1,4.4c3.2,0,5.9-2.5,6.1-5.7
						c0-0.4,0-1,0-1.6c1.1,0.8,2.5,1.3,3.9,1.3c2.1,0,4-0.9,5.3-2.6c0.2-0.2,0.4-0.5,0.6-0.8c1.1,1,2.6,1.5,4.2,1.5
						c0.6,0,1.2-0.1,1.9-0.2c0.9,1,2,1.7,3.2,1.9c0.7,0.1,1.4,0.2,2.1,0.2c3.9,0,7.2-1.9,9.7-3.7c1.1,1.1,2.2,1.8,3.3,2.3
						c1.2,0.5,2.6,0.8,4,0.8c1.2,0,2.2-0.2,3.1-0.3l0.5-0.1c0.4-0.1,0.7-0.1,1-0.2c1.5,0.9,3.3,1.4,5.2,1.4c4.1,0,8.1-2.1,10-5.3
						c1.7-2.8,1.8-6.1,0.5-8.5c0.6-1,0.9-2.1,1-3.2l0.4,2.1l5.7-2.5c2.1-0.9,12.7-2.1,16.4-2.3l3.7,0.3l4.6-17.1l-4.1-0.1
						C148,93.1,148.3,90.5,148.6,88z M99.7,88c1.8-2.9,4.5-4.9,6.7-5.7c6.6-2.5,10.7,1.5,10.7,1.5c-1.8,1.9-3.5,3.8-5,5.6
						c-6.7-1.7-7.3,4.2-7.3,4.2c-0.1,4.3,3.3,4.1,3.3,4.1c-0.1-1.5-0.1-3.1-0.1-4.6c1.9-0.5,3.8-1.1,5.8-1.7c0.5,5,1.6,9.9,3.2,15.4
						c-1.8,0.7-3.6,1.3-5.4,2c-0.5-1.6-1-3.1-1.5-4.5c-2.3,1.1-4.1,0.6-5.3,0C97.8,100.2,97.3,91.7,99.7,88z M40.1,95.2
						c-2.8,9.1-12.1,15.1-16.5,13.8c-11-2.9-17-12.4-18.4-18.2c-1-4,1-8.7,0.9-8.7c5.4-11.4,20.1-5.5,20.4-5.3
						C39,82.1,41.4,91,40.1,95.2z M62.3,116.6c-0.2,1.6-3.5,1.3-5.4,1.3c0.3,2,2.6,11,2.3,13.4c0,0.7-0.4,1.2-1,1.2
						c-0.7,0-1.1-0.3-1.4-1.2c-0.7-2.1-2.1-11.7-3.7-13.4c-1.2,0.9-3.9,1.8-5.2-0.1c-0.3-0.5,0.1-1.1,0.7-1.5
						c1.4-0.6,3.6-0.4,4.3-1.4c0.5-0.8,0-2.2-0.1-3.4c-0.1-1.2-0.2-2.3-0.4-3.5c-0.2-1.1,0.8-1.5,1.9-1.3c-1.4-2.4-2.8-4.7-4.4-6.8
						c-0.3,1.5-0.7,3-1.1,4.5c-2.3-0.2-4.5-0.3-6.8-0.5c0.6-2.3,1.1-4.4,1.5-6.5c-0.5-1.9-1.1-3.7-1.9-5.6c0.9-0.1,1.7-0.2,2.6-0.3
						c0.2-1.3,0.4-2.6,0.5-4c-1.2-0.1-2.4-0.2-3.7-0.3c-0.2-2-0.5-4-0.9-6.1c1.4,0.1,2.8,0.1,4.2,0.2c0-0.5,0.1-1,0.1-1.5
						c2.2,0.3,4.4,0.7,6.5,1c0,0.4,0.1,0.8,0.1,1.2c8.9,1.4,8.5,8.3,8.5,8.2c0.1,4.9-3.8,6.4-3.8,6.4c2.2,3.4,4.1,6.9,6,10.9
						c-1.7,1-3.5,2.1-5.3,3.2c0,0,0-0.1,0-0.1c0,1.5,0.2,3.1,0.6,4.6C58.9,115.4,62.5,114.6,62.3,116.6z M72.6,113.5
						c-1.1,1.8-3,2.6-4.1,4.5c-0.4,0.6-0.4,3.4,0.2,4.2c0.7,0.8,0.6,2.4-0.2,3.3c-0.6,1-2,1-2.7,0.2c-0.5-0.3-0.6-0.8-0.6-1.5
						c0-2.6-0.6-5.3-1.5-7.8c-0.5-1.6-2.7-3.4-1.4-4.8c1.5-1.5,4.1,0.6,4.1,2.7c2-0.3,2-3.1,4.6-2.4
						C72.1,112.2,73.2,112.6,72.6,113.5z M72.2,101.4c-1.8,0.2-3.6,0.4-5.3,0.6c-0.5,1.1-1,2.3-1.5,3.5c-1.3-0.6-2.7-1.2-4-1.7
						c-0.2-2.1-0.4-4.1-0.7-6c0.9-0.1,1.8-0.2,2.7-0.3c1-3,1.9-6,2.8-9c-0.4-0.8-0.8-1.5-1.2-2.3c0.8-0.3,1.7-0.7,2.6-1
						c0.1-0.5,0.3-1,0.4-1.4c1.6,0.8,3.1,1.7,4.5,2.5c-0.4,1.2-0.7,2.3-1,3.5c1.3,2.5,2.5,4.9,3.6,7.4c0.7,0,1.4,0,2.2,0
						c-0.1,1.4-0.2,2.8-0.3,4.2c0.2,0.4,0.3,0.9,0.5,1.3c-1.3,0.6-2.6,1.2-3.9,1.8C73.1,103.4,72.7,102.4,72.2,101.4z M78.3,115.5
						c-0.9,1.4-0.3,2.8-0.7,4c-0.5,1.5,0.5,2.9,0.1,4.4c0,0.1-0.1,0.4-0.3,0.4c-0.9,0.3-2.1,0.4-2.4-0.6c-0.6-1.8-0.2-3.7-0.4-5.5
						c-0.1-1.2-0.2-2.5,0.3-3.6c0.3-0.8,1.5-1.1,2.5-0.7C78.1,114.2,78.8,114.9,78.3,115.5z M77.5,111.5c-0.8,0.4-1.8,0.3-2.7-0.6
						c-0.6-0.7-0.3-2.3,0.2-2.6c1-0.7,2.5-0.6,3.2,0.3C79,109.6,78.1,111.2,77.5,111.5z M89,123.5c-2.3,1.7-4.8,3.3-7.5,2.7
						c-0.3-0.1-0.6-0.7-0.8-1.1c-0.3-3.1,0-5.8-0.7-8.7c-0.2-0.5-0.7-1.2-0.6-1.8c0.2-0.3,0.5-0.5,0.7-0.8c0.1-2.1-0.4-4.2,0-6.7
						c0.2-1.2,1.9-3.2,2.9-1.7c2,2.4-1,5.4,0.4,7.8c3.7,0.1,7.4,1.5,8.2,4.8C92.1,120,90.6,122.3,89,123.5z M90.8,103.4
						c0-0.4-0.1-0.7-0.1-1.1c-2.1-2-4.2-3.9-6.2-5.8c0.1,2.2,0.2,4.5,0.3,6.9c-1.4,0-2.8-0.1-4.2-0.1c-0.6-3.9-1-7.4-1.5-11
						c-0.7-0.6-1.4-1.2-2.2-1.9c0.6-0.6,1.1-1.2,1.7-1.7c0-0.9,0-1.7-0.1-2.6c1.8-0.2,3.6-0.3,5.4-0.5c0.1,1,0.2,2,0.2,3
						c2.1,1.9,4.1,3.9,6.1,5.8c0.1-2.9,0.2-5.8,0.5-8.9c1.9,0.1,3.9,0.2,5.8,0.3c-0.6,4-0.9,7.8-1,11.7c0.4,0.5,0.9,1,1.3,1.6
						c-0.5,0.4-0.9,0.7-1.4,1.1c0,1.1,0.1,2.2,0.2,3.4C94.1,103.6,92.5,103.5,90.8,103.4z M97.1,121.7c-0.1,0-0.7,0.3-0.6,0.7
						c1,2,3.1,1.2,5.1,0.2c1.1,0.9,0.3,2.9-1,3.1c-1.5,0.2-3.1,0.6-4.6-0.2c-3.1-1.6-3.7-5.2-3.4-8.2c0.2-3.1,3.2-5.6,6.6-5.2
						c2.7,0.3,4.7,2.8,4.1,5.6C102.4,119.2,98.4,120.5,97.1,121.7z M116.1,115.9c-2.4,1.1-4.2-2.9-7.5-1.2c-1.3,0.7,0.1,2.2,0.9,2.4
						c2.2,0.7,4,1.5,5.5,3c0.9,1,0,2.9-1.1,4.1c-2.8,3-9.1,4.4-10.7,0.1c-0.4-1,0.9-2,1.9-2c0.9-0.1,0.8,1.2,1.4,1.5
						c1.5,0.9,4.6,0.1,5.1-1.9c0.1-0.5-0.8-1.2-1.5-1.5c-2.4-1-5.1-1.6-5.8-3.8c-1-2.6,5.8-6.1,8.2-5.2c1.7,0.7,4,1,4.6,2.7
						C117.4,114.6,116.6,115.7,116.1,115.9z M143.7,87.4c-0.4,2.9-0.6,5.7-0.9,8.6c-3.1,0.3-6.2,0.7-9.1,1c0.1,0.8,0.2,1.7,0.3,2.6
						c3.7,0.1,7.6,0.2,11.5,0.4c-0.7,2.4-1.3,4.8-2,7.2c-0.2,0-14.9,1.1-18.5,2.8c-0.1-0.4-0.1-0.9-0.2-1.3
						c-1.9,0.1-3.8,0.2-5.6,0.3c-0.2-3-0.2-5.8-0.1-8.5c1.5-0.3,3.1-0.6,4.6-0.9c-0.3-4-0.4-7.8-0.1-11.6c-1.7,0.5-3.4,1-5,1.5
						c0.3-3,0.8-6.1,1.5-9.4c1.5-0.2,2.9-0.5,4.4-0.7c0.2-0.6,0.3-1.3,0.5-1.9c3.2-0.5,6.5-1,9.7-1.5c0.2,0.2,0.5,0.4,0.7,0.6
						c4.5-0.8,9.1-1.6,13.5-2.4c0.2,2.3,0.6,4.5,0.9,6.7c-5.4,1.3-10.8,2.5-16,3.8c-0.1,1.4-0.1,2.8-0.1,4.2
						C137.1,88.4,140.4,87.9,143.7,87.4z"/>
					<path d="M96.7,115.1c-1.6,0.8-1.6,3.7-0.8,3.8c1.6-0.1,3.2-0.5,3.9-2.1C101,115.2,98.2,114.4,96.7,115.1z"/>
				</g>
			</g>
			<g id="eyes_00000028327522646819726960000018061770885489184131_">
				<path d="M71.2,33.1c-0.5-0.7-1.2-1.1-2-1.3c-0.2,0-0.4,0-0.5,0c-1.5,0-2.8,1.1-3.1,2.6c-0.1,0.8,0,1.6,0.5,2.3
					c0.5,0.7,1.2,1.1,2,1.3c1.7,0.3,3.3-0.9,3.6-2.5C71.9,34.6,71.7,33.7,71.2,33.1z M70.5,35.2c-0.2,1-1.2,1.7-2.2,1.6
					c-1-0.2-1.7-1.2-1.6-2.2c0.2-1,1.2-1.7,2.2-1.6C70,33.1,70.7,34.1,70.5,35.2z"/>
				<path d="M101.3,37.2c-0.1,1.9-0.9,3.9-2.3,5.5c-0.7,0.8-1.6,1.4-2.7,1.8c-0.5,0.2-1.1,0.4-1.6,0.4c-0.6,0.1-1.1,0.1-1.7,0.1
					c-2.2,0-4.5-0.9-6.2-2.4c-1.7-1.5-2.8-3.6-3.3-5.7c-0.5-2.1-0.7-4.3,0-6.5c0.6-2.2,2.3-4.2,4.3-5.2c1-0.5,2-0.8,3.1-1
					c0.3,0,0.5-0.1,0.8-0.1c0.2,0,0.5,0,0.8,0c0.5,0,1.1,0,1.6,0.1c2.1,0.3,4.1,1.3,5.2,3c-1.6-1.1-3.5-1.5-5.2-1.3
					c-1.7,0.2-3.5,0.7-4.8,1.7c-1.3,0.9-2.2,2.2-2.5,3.7c-0.3,1.5-0.2,3.2,0.2,4.8c0.4,1.6,1.2,3.1,2.3,4.2c1.1,1.1,2.5,1.9,4.1,2.1
					c0.4,0.1,0.8,0.1,1.2,0.1c0.5,0,0.8,0,1.2-0.1c0.8-0.2,1.6-0.5,2.3-1C99.3,40.4,100.4,38.9,101.3,37.2z"/>
				<g>
					<path d="M93.4,39.1c-2.1,0-3.8-1.5-4.2-3.5c-0.2-1.1,0.1-2.3,0.7-3.2c0.7-0.9,1.6-1.6,2.8-1.8c2.4-0.4,4.5,1.2,4.9,3.5
						c0.4,2.3-1.1,4.5-3.5,4.9C93.9,39.1,93.7,39.1,93.4,39.1z M93.5,31.7c-0.2,0-0.4,0-0.5,0c-0.8,0.1-1.5,0.6-2,1.3
						c-0.5,0.7-0.7,1.5-0.5,2.3c0.3,1.7,1.9,2.8,3.6,2.5c1.7-0.3,2.8-1.9,2.5-3.6C96.3,32.8,95,31.7,93.5,31.7z"/>
				</g>
				<path d="M91.6,35.2c-0.2-1,0.5-2,1.6-2.2c1-0.2,2,0.5,2.2,1.6c0.2,1-0.5,2-1.6,2.2C92.7,36.9,91.7,36.2,91.6,35.2z"/>
			</g>
			<g>
				<g>
					<path d="M94.1,72.2c-0.1,0-0.3,0-0.4,0c-2.9-0.2-5.7-1.1-8.2-1.8c-1.8-0.5-3.4-1.1-4.4-1.1v-3.9c1.5,0,3.4,0.6,5.5,1.2
						c2.3,0.7,4.9,1.5,7.3,1.7c0.7,0,1.2-0.2,1.6-0.7c1-1.6,0.9-5.6-1.4-10c-1.6-3-5-2-10.1,0.6c-1.4,0.7-2.1,1.1-2.9,1.1v-3.9
						c-0.2,0,0.6-0.4,1.2-0.7c3.5-1.8,11.6-5.9,15.3,1.1c2.7,5.2,3.2,10.8,1.2,13.9C97.7,71.4,96,72.2,94.1,72.2z"/>
				</g>
				<polygon points="97.9,63.4 91.2,62.3 97.9,61.1 				"/>
				<path d="M106.8,7.1C106.6,6.8,100.6,0,81.1,0C61.6,0,55.6,6.8,55.4,7.1L55,7.6V81l0.8,0.5C56,81.6,61.9,85,81.1,85
					c19.2,0,25-3.4,25.3-3.5l0.8-0.5V7.6L106.8,7.1z M66.5,42.4c0.4,0.1,0.8,0.1,1.2,0.1c0.4,0,0.8,0,1.2-0.1c1.6-0.2,3-1,4.1-2.1
					c1.1-1.1,1.8-2.6,2.3-4.2c0.4-1.6,0.6-3.3,0.2-4.8c-0.3-1.5-1.2-2.8-2.5-3.7c-1.3-0.9-3.1-1.5-4.8-1.7c-1.8-0.2-3.6,0.2-5.2,1.3
					c1.1-1.7,3.1-2.7,5.1-3c0.5-0.1,1-0.1,1.6-0.1c0.3,0,0.5,0,0.8,0c0.3,0,0.5,0,0.8,0.1c1.1,0.1,2.1,0.5,3.1,1
					c2,1,3.7,2.9,4.3,5.2c0.7,2.2,0.5,4.5-0.1,6.5c-0.6,2.1-1.6,4.1-3.3,5.7c-1.7,1.5-3.9,2.5-6.2,2.4c-0.6,0-1.1,0-1.7-0.1
					c-0.5-0.1-1.1-0.2-1.6-0.4c-1-0.4-2-1.1-2.7-1.8c-1.5-1.6-2.2-3.5-2.4-5.5c0.9,1.7,2,3.3,3.4,4.2C65,41.9,65.8,42.2,66.5,42.4z
					 M64.4,34.1c0.4-2.3,2.6-3.9,4.9-3.5c1.1,0.2,2.1,0.8,2.8,1.8c0.7,0.9,0.9,2.1,0.7,3.2c-0.4,2-2.1,3.5-4.2,3.5
					c-0.2,0-0.5,0-0.7-0.1c-1.1-0.2-2.1-0.8-2.8-1.8C64.5,36.4,64.2,35.2,64.4,34.1z M81.1,59.2c-0.8,0-1.5-0.4-2.9-1.1
					c-5.1-2.6-8.5-3.6-10.1-0.6c-0.7,1.4-1.2,2.7-1.5,4l4.4,0.8l-4.7,0.8c-0.3,2-0.1,3.6,0.5,4.5c0.4,0.6,0.8,0.8,1.6,0.7
					c2.4-0.2,5-1,7.3-1.7c2.1-0.7,4-1.2,5.5-1.2v3.9c-0.9,0-2.6,0.5-4.4,1.1c-2.5,0.8-5.3,1.6-8.2,1.8c-0.1,0-0.3,0-0.4,0
					c-1.9,0-3.6-0.9-4.6-2.5c-2-3.1-1.6-8.7,1.2-13.9c3.6-6.9,11.8-2.8,15.3-1.1c0.6,0.3,1.2,0.7,1.2,0.7V59.2z M103.8,78.9
					c-2.1,0.8-8.6,2.7-22.7,2.7V3.4c15,0,21.2,4.2,22.7,5.5V78.9z"/>
			</g>
		</g>
	</g>
</g>
</svg>
