<?xml version="1.0" encoding="utf-8"?>
<!-- Generator: Adobe Illustrator 27.3.1, SVG Export Plug-In . SVG Version: 6.00 Build 0)  -->
<svg version="1.1" id="svg3479" xmlns:svg="http://www.w3.org/2000/svg"
	 xmlns="http://www.w3.org/2000/svg" xmlns:xlink="http://www.w3.org/1999/xlink" x="0px" y="0px" viewBox="0 0 885.8 783.9"
	 style="enable-background:new 0 0 885.8 783.9;" xml:space="preserve">
<style type="text/css">
	.st0{fill-rule:evenodd;clip-rule:evenodd;fill:#00519B;}
	.st1{fill:#00519B;}
	.st2{fill:#F36F21;}
	.st3{fill:#BE2F37;}
</style>
<path id="path3028" class="st0" d="M633.7,749h46.2c1.4-17.9-5.6-36.6-26.4-36.6c-15.4,0-32.4,10.8-32.4,34.4
	c0,24,14.1,37.2,35.4,37.2c7.1,0,15.6-2.9,22.7-7.9l-3.6-6.7c-4.8,3.6-12.4,5.9-18.7,5.9c-13.5,0-23.2-12.6-23.1-26.2
	c-0.2-17.6,6.4-27.9,19.5-27.9c10.8,0,15.3,9,15.3,19.7l-34.3-0.1L633.7,749"/>
<path id="path3032" class="st1" d="M173.5,782.3V714h-12.3v39.9c0,13.2-7.8,21-17.2,21c-11.1,0-16.5-6.8-16.5-19.7V714h-12.3v44
	c0,17.2,8.5,26,24.2,26c8.9,0,15-3.6,22-9.6L173.5,782.3"/>
<path id="path3036" class="st1" d="M235.7,714v68.3H248v-36.7c0-15.2,5.2-21.4,11.5-21.4c3.1,0,6.1,1.4,9.2,2.9l5.6-7.9
	c-3.8-4.5-8.3-6.7-11.3-6.7c-2.9,0-7.4,2-10.2,4.9l-4.9,5.2L235.7,714"/>
<path id="path3040" class="st0" d="M353.8,721.1c15.4,0,20.5,13.9,20.5,26.2c0,12.8-4.4,27.9-20.5,27.9c-16,0-20.4-15-20.4-27.9
	C333.5,735,338.5,721.1,353.8,721.1z M353.8,783.9c20.2,0,33.7-15.4,33.7-36.6c0-22.1-16.5-35-33.7-35c-17.2,0-33.6,12.8-33.6,35
	C320.2,768.5,333.7,783.9,353.8,783.9"/>
<path id="path3044" class="st1" d="M494.1,770c-5.3,3.4-10.8,4.9-16.7,4.9c-16.5,0-23.8-13.4-23.8-27.6c0-18.6,12.7-26,23.9-26
	c5.1,0,10.1,1.6,14.1,3.6l4.1-7c-5.1-3.8-11.3-5.6-18.3-5.6c-25.7,0-37,18.6-37,35.6c0,9.4,4.1,35.9,36.5,35.9
	c5.9,0,13.9-2.3,20.6-7.1L494.1,770"/>
<path id="path3048" class="st1" d="M564.9,782.3v-93.7l-12.3-8.4v102.1H564.9"/>
<path id="path3052" class="st1" d="M847.3,714v68.3h12.3v-36.7c0-15.2,5.2-21.4,11.5-21.4c3.1,0,6.1,1.4,9.2,2.9l5.6-7.9
	c-3.8-4.5-8.3-6.7-11.3-6.7c-2.9,0-7.4,2-10.3,4.9l-4.9,5.2L847.3,714"/>
<path id="path3064" class="st0" d="M13.2,740.8c1.7-12.6,8.1-19.7,19.1-19.7c10.8,0,15.3,9,15.3,19.7L13.2,740.8L13.2,740.8z
	 M32.4,712.4C16.9,712.4,0,723.1,0,746.8c0,24,14.1,37.2,35.4,37.2c7.1,0,15.6-2.9,22.7-7.9l-3.6-6.7c-4.8,3.6-12.4,5.9-18.7,5.9
	c-13.5,0-23.2-12.6-23.1-26.2h46C60.1,731.1,53.1,712.4,32.4,712.4"/>
<path id="path3068" class="st0" d="M773.6,770.7c13.6,13.6,12,11.6,12,11.6c0.3-23.5,0.2-46.7,0.2-46.7c0-19.9-15-23.2-25.3-23.2
	c-9.6,0-16.5,2.7-23.4,9.3l4.8,6.1c4.9-4.1,10-7.4,17.9-7.4c6.7,0,13.1,5.3,13.7,13.7l-16.5,5.2c-14.2,4.2-24.3,11.7-24.3,23.6
	c0,12.8,7.9,21,19.4,21c6.3,0,12.3-4.2,17.1-9L773.6,770.7L773.6,770.7z M773.9,742.3c1.6,21.3-9.6,32.1-18.3,32.1
	c-4.9,0-9.8-4.5-9.8-11.6c0-8.6,5.6-13.8,16.4-17.1L773.9,742.3"/>
<path id="path3072" class="st2" d="M488.2,94c-125.4-30.4-264.8,25.3-321.5,146.8C110.1,362.3,155,509.3,259,585.9
	C123.2,522.5,64.4,361.1,127.7,225.3C191,89.5,352.4,30.7,488.2,94"/>
<path id="path3076" class="st2" d="M364.5,631.9c155.3,9.8,320.2-82.5,362-238.5C768.3,237.3,673,69.1,533.6,0
	c174.5,46.8,285,229.2,238.2,403.7C725.1,578.2,538.9,678.6,364.5,631.9"/>
<path id="path3080" class="st3" d="M343.5,216.9c-60.4,59.1-69.1,158.4-21.3,232c47.8,73.6,136.3,97,214.8,65.9
	c-82.3,53.4-197.6,31.8-251-50.4S261.2,270.4,343.5,216.9"/>
<path id="path3084" class="st2" d="M431.1,274.6c31.9,6.2,52.8,37.2,46.6,69.1c-6.2,31.9-37.2,52.8-69.1,46.6
	c-31.9-6.2-52.8-37.2-46.6-69.1c-0.4,26.3,21.2,48,47.5,47.9c22.2-0.1,38.3-13.5,45.2-34.6C462.5,310.5,453,286.6,431.1,274.6"/>
<path id="path3088" class="st3" d="M512.8,417.4c43.5-42.5,51.7-110,17.3-163c-34.4-53-100.1-73.9-156.6-51.4
	c59.2-38.5,142.3-22.9,180.7,36.3C592.7,298.5,572.1,379,512.8,417.4"/>
</svg>
