<svg viewBox="0 0 80 20" focusable="false" class="chakra-icon css-1al4123" xmlns="http://www.w3.org/2000/svg"><path d="M17.8524 4.325L5.94746 0V1.98L3.96497 1.26V3.24L1.98249 2.52V4.5L0 3.78V15.67L11.9049 20V18.02L13.8874 18.74V16.76L15.8699 17.48V15.5L17.8524 16.22V4.325ZM4.66084 2.26L5.94245 2.725V3.96L4.66084 3.495V2.26ZM15.164 14.495L13.8824 14.03V6.845L6.64834 4.215V2.98L15.169 6.075V14.495H15.164ZM2.67836 5.5L3.95997 5.965V13.145L11.194 15.775V17.01L2.67335 13.915V5.5H2.67836ZM4.66084 12.66V6.22L5.94746 6.69V11.89L11.199 13.8V15.035L4.66084 12.66ZM4.66084 5.475V4.24L5.94245 4.705V5.94L4.66084 5.475ZM11.199 13.055L6.64834 11.4V6.945L11.199 8.6V13.055ZM11.8999 14.055L13.1815 14.52V15.755L11.8999 15.29V14.055ZM11.8999 13.31V8.11L6.64834 6.2V4.965L13.1815 7.34V13.775L11.8999 13.31ZM2.67836 3.52L3.95997 3.985V5.22L2.67836 4.755V3.52ZM11.199 19L0.695873 15.18V4.78L1.97748 5.245V14.41L11.199 17.76V19ZM13.1815 17.74L11.8999 17.275V16.04L13.1815 16.505V17.74ZM15.164 16.48L13.8824 16.015V14.78L15.164 15.245V16.48ZM17.1515 15.215L15.8699 14.75V5.585L6.64834 2.235V1L17.1515 4.82V15.215Z" fill="#219653"></path><path d="M32.356 13.5549C32.5613 13.1449 32.6664 12.6299 32.6664 12.0299C32.6664 10.6649 31.6301 10.0449 31.3097 9.88495L31.1846 9.82495L31.3047 9.75495C32.0957 9.28495 32.5112 8.61495 32.5112 7.81495C32.5112 6.86995 32.1758 6.13995 31.51 5.64495C30.9042 5.18995 30.0281 4.94995 28.9768 4.94995H24.7114V14.9499H29.2071C30.2534 14.9499 31.0043 14.7849 31.56 14.4349C31.9055 14.2149 32.1758 13.9199 32.356 13.5549ZM27.0844 6.67995H28.7865C29.4574 6.67995 30.1733 6.98495 30.1733 7.83495C30.1733 8.68495 29.4574 8.98995 28.7865 8.98995H27.0844V6.67995ZM28.8967 13.2149H27.0894V10.7799H28.8967C29.6026 10.7799 30.3585 11.0999 30.3585 11.9999C30.3585 12.8999 29.6026 13.2149 28.8967 13.2149Z" fill="#231f20"></path><path d="M80.0002 4.9447H77.6272V14.9447H80.0002V4.9447Z" fill="#231f20"></path><path d="M51.3704 14.9447H52.9073V4.9447H50.5293V10.0697L46.4592 4.9447H44.9272V14.9447H47.3002V9.8247L51.3704 14.9447Z" fill="#231f20"></path><path d="M59.7461 11.4447L62.0139 14.9447H64.8274L61.2079 9.3647L64.3068 4.9447H61.4232L58.7548 8.7547V4.9447H56.3918V14.9447H58.7548V12.8597L59.7461 11.4447Z" fill="#231f20"></path><path d="M40.4153 14.9447H42.8984L39.0936 4.9447H37.5567L33.752 14.9447H36.2451L36.7858 13.3197H39.9097L40.4153 14.9447ZM37.3414 11.6447L38.3978 8.4697L39.384 11.6447H37.3414Z" fill="#231f20"></path><path d="M72.7412 14.9447H75.2243L71.4196 4.9447H69.8827L66.0779 14.9447H68.571L69.1117 13.3197H72.2356L72.7412 14.9447ZM69.6674 11.6447L70.7237 8.4697L71.7099 11.6447H69.6674Z" fill="#231f20"></path></svg>