<?xml version="1.0" encoding="utf-8"?>
<!-- Generator: Adobe Illustrator 27.3.1, SVG Export Plug-In . SVG Version: 6.00 Build 0)  -->
<svg version="1.1" id="layer" xmlns="http://www.w3.org/2000/svg" xmlns:xlink="http://www.w3.org/1999/xlink" x="0px" y="0px"
	 viewBox="0 0 501.6 500" style="enable-background:new 0 0 501.6 500;" xml:space="preserve">
<g id="my-euroclear">
	<g id="Euroclear_MyEuroclear_Dashboard" transform="translate(-110.000000, 0.000000)">
		<g id="HEADER">
			<g id="euroclear-logo" transform="translate(110.000000, 0.000000)">
				<rect id="Rectangle" x="35.9" class="st0" width="435.8" height="459.7"/>
				<path id="Fill-38" class="st1" d="M211.4,409.5c-7.1,0-9.7,6.6-9.7,12.7c0,4.1,0.9,13.5,9.7,13.5c8.8,0,9.8-9.5,9.8-13.5
					C221.2,419.3,220.5,409.5,211.4,409.5"/>
				<path id="Fill-40" class="st1" d="M387.4,430.2c0,3.3,2.2,5.2,4.3,5.2c1.7,0,3.6-0.9,5.1-2.6c1.5-1.6,3.9-5.3,3.6-12.2l-5.1,1.5
					C389.8,423.8,387.4,426.3,387.4,430.2"/>
				<path id="Fill-42" class="st1" d="M70.5,409.5c-6.1,0-8.2,4.6-8.9,8.6h16C77.4,412.7,74.7,409.5,70.5,409.5"/>
				<path id="Fill-44" class="st1" d="M345.5,409.5c-4.8,0-7.9,3-8.9,8.6h16C352.5,415.4,351.5,409.5,345.5,409.5"/>
				<path id="Fill-46" class="st2" d="M448.8,407.8l-3.5,4.9l-0.6-0.3c-1.5-0.7-2.9-1.4-4.4-1.4c-3.2,0-5.1,3.8-5.1,10.3v19.6h-7.8
					v-37.2l6.8,4.8l2.1-2.2c1.6-1.6,4.1-2.8,5.8-2.8c2,0,4.5,1.5,6.4,3.7l0.4,0.4L448.8,407.8z M403.7,247.7
					c-17.5,65.4-78.6,111.1-148.5,111.1c-13.6,0-27.2-1.8-40.3-5.3l0.2-1.4c3.4,0.2,6.9,0.3,10.4,0.3c34.2,0,68.5-10.4,96.7-29.4
					c30.1-20.2,50.5-48.1,59.2-80.5c9.1-33.8,4.4-71.2-13.1-105.3c-16.8-32.8-43.7-59.6-75.6-75.4l0.5-1.3
					c39.3,10.5,72.6,35.9,93.7,71.4C408.2,167.6,414.2,208.8,403.7,247.7L403.7,247.7z M407.9,440.1l-0.4,0.9H407
					c-0.4,0-0.5,0-6.2-5.7l-1.7,1.7c-3.2,3.2-6.3,4.8-9.3,4.8c-6.4,0-10.7-4.6-10.7-11.5c0-5.9,4.5-10.3,13-12.8l7.9-2.5
					c-0.5-3.8-3.5-5.7-6.2-5.7c-3.6,0-6,1.4-8.7,3.6l-0.6,0.5l-3.3-4.3l0.5-0.5c3.6-3.5,7.4-5,12.5-5c8.8,0,13.7,4.5,13.7,12.7
					c0,0.1,0,12-0.1,23.7L407.9,440.1z M359.9,423.1l-0.1,0.7h-23.5c0.1,3.4,1.5,6.6,3.8,8.8c2,2,4.6,3.1,7.3,3.1
					c3.1,0,6.9-1.2,9.2-2.9l0.7-0.5l2.5,4.8l-0.5,0.4c-3.7,2.6-8.2,4.2-12.1,4.2c-11.8,0-18.9-7.4-18.9-19.8
					c0-12.6,9-18.4,17.4-18.4c4.1,0,7.5,1.4,10,4C358.8,411.1,360.4,416.7,359.9,423.1L359.9,423.1z M305.5,440.9h-7.8v-54.6
					l7.8,5.4V440.9z M278.4,438c-3.9,2.8-8.2,3.8-11,3.8c-7.4,0-12.9-2.6-16.2-7.7c-3-4.6-3.2-9.9-3.2-11.4c0-9.2,6.2-19,19.7-19
					c3.9,0,7.2,1,9.8,3l0.5,0.4l-2.8,4.7l-0.6-0.3c-1.7-0.8-4.2-1.8-6.9-1.8c-5.7,0-11.5,3.9-11.5,12.6c0,6.2,3,13.4,11.4,13.4
					c3,0,5.6-0.8,8.1-2.4l0.7-0.5l2.4,4.8L278.4,438z M211.4,441.8c-10.6,0-18-8-18-19.5c0-9.1,6.3-18.7,18-18.7
					c8.8,0,18.1,6.5,18.1,18.7C229.4,433.7,222,441.8,211.4,441.8L211.4,441.8z M178.3,275.9c-11.9-18.4-15.6-40.6-10.3-62.6
					c5.2-21.7,18.4-40.4,37-52.5l0.9,1.1c-27.4,26.8-31.6,72.5-9.7,106.2c15,23.1,39.2,36.3,66.6,36.3c10.8,0,21.4-2.1,31.7-6.2
					l0.6,1.2c-13.7,8.9-29.8,13.6-46.5,13.6C219.6,313,193.3,299.1,178.3,275.9L178.3,275.9z M174.7,412.8l-0.6-0.3
					c-1.5-0.7-2.9-1.4-4.4-1.4c-3.2,0-5.1,3.8-5.1,10.3V441h-7.8v-37.2l6.8,4.8l2.1-2.2c1.6-1.6,4.1-2.8,5.8-2.8
					c2,0,4.5,1.5,6.4,3.7l0.4,0.4L174.7,412.8z M134.3,441.6l-6.9-4.5c-2.9,2.5-6.3,4.7-11.3,4.7c-8.6,0-13.2-4.9-13.2-14.1v-23.3
					h7.8v21.9c0,6.2,2.6,9.3,7.7,9.3c4.8,0,8.1-4.1,8.1-10v-21.2h7.8L134.3,441.6L134.3,441.6z M245.5,188.6l0.5-1.3
					c7.3,1.4,13.6,5.6,17.8,11.8c4.2,6.2,5.7,13.6,4.3,20.9c-2.5,13.1-14.1,22.6-27.4,22.6c-1.8,0-3.6-0.2-5.3-0.5
					c-15.1-2.9-25-17.6-22.1-32.7l1.4,0.1c-0.1,5.7,2.1,11,6.1,15.1s9.3,6.3,15,6.3c9.8-0.1,17.1-5.7,20.3-15.5
					C259.5,204.7,255.3,193.9,245.5,188.6L245.5,188.6z M291,179c-11.2-17.2-29.9-27.5-50.1-27.5c-7.3,0-14.5,1.4-21.3,4.1l-0.6-1.2
					c9.9-6.4,21.5-9.8,33.6-9.8c20.9,0,39.9,10,50.8,26.8c8.6,13.3,11.3,29.3,7.4,45.2c-3.8,15.7-13.3,29.2-26.8,37.9l-0.9-1.1
					C303.3,233.6,306.5,203,291,179L291,179z M105.2,164.9c20.6-44.2,65.4-72.7,114.2-72.7c18.4,0,36.3,4,53.1,11.8l-0.5,1.3
					c-10.3-2.5-20.9-3.7-31.5-3.7c-50.3,0-95.9,27.9-116,71.1c-25.2,54-7,122.1,42.4,158.4l-0.7,1.2c-30.5-14.2-53.6-39.4-65.1-71
					C89.5,229.6,91,195.4,105.2,164.9L105.2,164.9z M84.8,423.1l-0.1,0.7H61.2c0.1,3.4,1.5,6.6,3.7,8.8c2,2.1,4.6,3.1,7.3,3.1
					c3.1,0,6.9-1.2,9.1-2.9l0.7-0.5l2.5,4.8l-0.5,0.4c-3.7,2.6-8.2,4.2-12.1,4.2c-11.8,0-18.9-7.4-18.9-19.8
					c0-12.6,9-18.4,17.4-18.4c4.1,0,7.5,1.4,10,4.1C83.8,411.1,85.3,416.7,84.8,423.1L84.8,423.1z M0,0l1,471.8
					C1,487.4,13.6,500,29.2,500h443.7c15.6,0,28.2-12.6,28.2-28.2L501.6,0L0,0L0,0z"/>
			</g>
		</g>
	</g>
</g>
</svg>
