<?xml version="1.0" encoding="utf-8"?>
<!-- Generator: Adobe Illustrator 27.3.1, SVG Export Plug-In . SVG Version: 6.00 Build 0)  -->
<svg version="1.1" id="Layer_1" xmlns="http://www.w3.org/2000/svg" xmlns:xlink="http://www.w3.org/1999/xlink" x="0px" y="0px"
	 viewBox="0 0 153.7 102" style="enable-background:new 0 0 153.7 102;" xml:space="preserve">
<g>
	<g>
		<path d="M153.7,1.9c-1.9,14.7-5.8,29.9-15.8,41c-1.8,11.8-4.7,23.8-10.6,34.2c-6.1,10.6-15.3,18.4-26.9,22
			c-12.2,3.8-25.4,3.1-37.9,1.8c-12.3-1.3-25.5-2.3-36.7-8.2c-5.4-2.9-9.9-7-13.4-12.1C9,75.8,6.7,70.1,5.1,64.4
			c-1.6-5.9-2.8-12-3.7-18.1c-0.9-6-1.9-12.1-1.1-18.2c0.8-6.1,3.7-11.4,8.9-14.6c5.1-3.1,11.1-4,16.9-4.7
			c14.1-1.7,28.3-3.4,42.5-3.3c14.2,0.1,28.4,1.9,41.7,7.1c6.2,2.4,12.7,5.5,19.5,4.1c6-1.3,11-5.2,15.3-9.4
			c2.2-2.2,4.2-4.5,6.3-6.8C152.4-0.8,153.9,0.6,153.7,1.9z M123.6,19.9c-6.9-0.8-13.2-4.4-19.8-6.5c-6.5-2-13.2-3.4-20-4.1
			C70,7.8,56,8.5,42.2,9.9c-6.6,0.7-13.2,1.3-19.7,2.3c-5.4,0.9-11.2,2.3-15.1,6.4C3.2,23.1,2.6,29.5,3,35.3
			C3.3,41.2,4.3,47.2,5.4,53c2.1,11.3,5.4,23.2,13.8,31.4c9,8.9,22,11.1,33.9,12.6c12.1,1.5,24.6,3,36.8,1.4
			c6-0.7,11.9-2.5,17.4-5.3c5.1-2.7,9.5-6.4,13.1-11c7.2-9.1,11-20.6,13.3-31.9c0.6-2.8,1-5.6,1.5-8.4c0-0.4,0.3-0.8,0.6-0.9
			c8.6-9.5,12.4-22.2,14.4-34.8C143.1,13.8,134.4,21.2,123.6,19.9L123.6,19.9z"/>
	</g>
</g>
<g>
	<path d="M44.5,25.4c-0.9-0.1-1.5-0.1-2-0.3c-1.2-0.3-1.9-1.2-1.9-2.3c0-1.2,0.8-2,2.1-2.2c0.4-0.1,0.9-0.1,1.3-0.1
		c2.1,0,4.2,0,6.4,0c0.8,0,1.4,0.2,2,0.8c1.1,1.2,0.6,3-0.9,3.6c-0.6,0.2-1.3,0.3-2,0.5c-0.2,0.9-0.4,1.8-0.6,2.7
		c-0.7,3.4-1.6,6.7-2.9,9.9c-1.7,4.1-4.6,7.1-8.1,9.6c-0.2,0.2-0.5,0.3-0.8,0.4c-1,0.4-2.1,0-2.7-0.9c-0.5-0.8-0.5-1.9,0.1-2.7
		c0.3-0.4,0.7-0.7,1.1-1c0.7-0.6,1.4-1.1,2-1.7c1.5-1.4,2.8-3,3.7-4.9C42.9,33.4,43.7,29.5,44.5,25.4z"/>
	<path d="M61.7,42.9l-8.3-0.5c-1,1.3-1.9,2.8-3.1,3.8c-2,1.6-4.9-1-3.6-3.2c3.2-5,6.2-10.1,9.7-14.9c0.5-0.7,1.2-1.3,1.8-1.9
		c3.9-3,6.4,0.6,6.8,4.4c0.7,4.9,1.8,9.8,2.2,14.8c-0.1,2.6-3.8,3.2-4.7,0.7C62.1,45,62,44.2,61.7,42.9z M56.4,37.4
		c1.7,0.1,3,0.5,4.5,0.2c0-1.9-0.3-3.8-1-5.6C58.6,33.7,57.4,35.5,56.4,37.4z"/>
	<path d="M75.7,43.2c0.8,0.3,2.7-2.3,5.1-5.7c1.7-2.4,3.6-4.7,5.6-6.9c0.2-0.2,0.4-0.4,0.6-0.5c0.3-0.2,1-0.7,1.9-0.6
		c0.5,0.1,0.9,0.3,1.3,0.6c1,0.8,1.1,2.1,0.3,3.3c-0.2,0.3-0.5,0.6-0.7,0.9c-3.4,3.9-6.8,7.8-10.2,11.7c-0.7,0.7-1.3,1.5-2.1,2.2
		c-2.2,1.9-4.6,1.2-5.5-1.6c-0.2-0.6-0.4-1.3-0.5-2c-0.4-4.9-0.7-9.9-1.1-14.8c0-0.2,0-0.3,0-0.5c0.1-1.1,0.9-2,2-2.2
		c0.9-0.2,2.1,0.3,2.5,1.2c0.4,1,0.6,1.8,0.5,2.4c-0.1,3.4,0.1,6.7,0.1,10.1C75.3,42.5,75.4,43,75.7,43.2z"/>
	<path d="M100.3,47.1L92,46.6c-1,1.3-1.9,2.8-3.1,3.8c-2,1.6-4.9-1-3.6-3.2c3.2-5,6.2-10.1,9.7-14.9c0.5-0.7,1.2-1.3,1.8-1.9
		c3.9-3,6.4,0.6,6.8,4.4c0.7,4.9,1.8,9.8,2.2,14.8c-0.1,2.6-3.8,3.2-4.7,0.7C100.7,49.2,100.6,48.4,100.3,47.1z M95,41.6
		c1.7,0.1,3,0.5,4.5,0.2c0-1.9-0.3-3.8-1-5.6C97.2,37.9,96.1,39.7,95,41.6z"/>
	<path d="M25.8,67.1c0-0.1,0.1-0.2,0.1-0.3c0-0.8-1.3-1.4-1.5-1.4c-1-0.5-2-1-3-1.7c-4-2.7-3.2-7-1-9.3c2.5-2.6,5.6-3.6,9.1-3.1
		c0.7,0.1,1.5,0.4,2.1,0.8c1,0.6,1.3,1.8,0.9,2.8c-0.4,1-1.3,1.6-2.6,1.4c-0.8-0.1-1.1-0.2-1.8-0.3c-0.6-0.1-3-0.6-4.1,0.6
		c-0.2,0.2-0.6,0.8-0.6,1.8c0.1,0.8,0.6,1.1,1.2,1.4c0.9,0.5,1.9,1,2.8,1.5c0.9,0.6,1.8,1.1,2.6,1.9c1.9,1.9,1.8,4.6,0.1,6.6
		c-0.9,1-2,1.6-3.2,2.1c-1.7,0.7-3.5,1-5.4,1.1c-1.3,0.1-2.3-0.7-2.6-1.8c-0.4-1.3,0.4-2.6,1.8-3c0.4-0.1,0.7-0.2,0.9-0.2
		c0.6-0.1,0.9-0.1,1.3-0.2C23.8,68,25.4,67.9,25.8,67.1z"/>
	<path d="M43.5,75.7c-1.2-0.3-2.4-0.5-3.5-0.9c-3.8-1.5-6.4-5-5.9-10.3c0.5-5,3.2-8.7,7.9-10.8c1.8-0.8,3.7-0.9,5.6-0.5
		c0.9,0.2,1.6,0.6,2.3,1.2c0.9,0.9,1.2,2.2,0.6,3.4c-0.6,1.1-1.7,1.7-3.1,1.3c-0.9-0.2-1.8-0.6-2.8-0.4c-3.3,0.8-5.8,5.1-4.8,8.4
		c0.3,1.1,1.1,2,2.2,2.5c1.8,0.8,3.5,0.8,5.3,0.1c0.5-0.2,0.9-0.5,1.4-0.7c1.2-0.5,2.3-0.2,3.1,0.7c0.7,0.9,0.8,2.2,0.3,3.2
		c-0.4,0.8-1.1,1.3-1.9,1.7C48,75.5,45.8,75.9,43.5,75.7z"/>
	<path d="M64.7,70c0.9,1.1,1.9,1.7,2.8,2.5c0.8,0.7,1.7,1.3,2.4,2.1c0.7,0.7,0.8,1.6,0.4,2.6c-0.4,0.9-1.1,1.2-2,1.4
		c-0.6,0.1-1.2-0.2-1.9-0.7c-1.2-0.8-1.4-1.4-2.7-2.7c-2.4-2.5-3.2-2.4-3.4-2.3c-0.1,0-0.2,0.1-0.3,0.2c-0.1,0.9-0.2,1.6-0.3,2.4
		c-0.2,1.1-0.7,1.8-1.8,2.1c-0.6,0.2-1.2,0.1-1.8-0.2c-0.5-0.3-0.9-0.8-1.1-1.4c-0.1-0.6-0.2-1.2-0.2-1.8c0-5.1,0.5-10.2,1.2-15.3
		c0.5-3.3,0.8-3.6,4.1-4.2c2.8-0.5,5.5,0,7.8,1.7c3.5,2.6,4.1,6.9,1.2,10.2c-0.8,1-1.9,1.7-3,2.5C65.9,69.3,65.3,69.6,64.7,70z
		 M62,59.5c-0.5,0.1-0.9,0.5-1,0.9c-0.2,0.8-0.4,1.6-0.5,2.5c-0.1,0.9-0.1,1.7-0.1,2.5c0,0.2,0.1,0.5,0.3,0.6
		c0.2,0.1,0.4,0.2,0.7,0.1c0.5-0.2,1-0.4,1.5-0.6c0.8-0.4,1.5-0.8,2.1-1.4c0.3-0.3,0.5-0.5,0.7-0.9c0.6-0.9,0.6-1.8-0.2-2.5
		C64.5,59.8,63.4,59.2,62,59.5z"/>
	<path d="M73.2,77.5c0.1-1.5,0.3-2.9,0.4-4.4c0.5-5.1,1-10.2,1.5-15.2c0-0.5,0.2-1,0.4-1.5c0.4-0.8,1.1-1.2,2-1.2
		c0.9,0,1.6,0.4,2.1,1.2C80,57,80,57.8,80,58.5c-0.4,4-0.8,8-1.2,12c-0.2,2-0.4,4.1-0.6,6.1c0,0.7-0.2,1.4-0.3,2
		c-0.4,1.1-1.3,1.8-2.4,1.7c-1.1-0.1-2.1-1-2.2-2.3C73.2,77.9,73.2,77.7,73.2,77.5z"/>
	<path d="M86.7,74.5c-0.1,1.1-0.2,2-0.3,2.9c-0.1,0.6,0,1.2-0.2,1.8c-0.2,1.1-1.2,1.9-2.3,1.9c-1.1,0-2.1-0.6-2.3-1.8
		c-0.2-0.7-0.2-1.5-0.1-2.3c0.4-3.5,0.8-7,1.3-10.4c0.3-2.3,0.8-4.5,1.1-6.8c0.2-1.4,0.9-2.2,2.1-2.7c1.6-0.7,3.3-0.6,4.9-0.3
		c2.7,0.5,4.9,1.7,6.6,3.8c2.4,2.9,2.2,6.6-0.2,9.4c-1,1.2-2.3,2-3.7,2.7c-1.5,0.7-3.1,1.2-4.8,1.4C88.2,74.2,87.5,74.3,86.7,74.5z
		 M87.3,69.6c1.2-0.2,2.4-0.6,3.5-1.1c0.2-0.1,0.6-0.3,1.1-0.6c0.8-0.4,1.2-0.6,1.6-1c0.3-0.3,0.8-0.9,0.9-1.7c0-0.6-0.2-1-0.5-1.4
		c-0.5-0.8-1.3-1.5-2.3-1.8c-0.6-0.2-1.1-0.3-1.7-0.3c-0.4,0-0.8,0-1.2,0c-0.5,1.8-0.8,3.7-1.1,5.5C87.5,68.1,87.4,68.9,87.3,69.6
		L87.3,69.6z"/>
	<path d="M108.6,65.4c-0.2-0.1-2.7-0.3-3.4-0.2c-0.6,0.1-1.2,0.1-1.8,0c-1-0.2-1.8-1-1.9-2c-0.1-1.1,0.5-2.1,1.6-2.5
		c0.6-0.2,1.2-0.3,1.8-0.3c3,0,5.9,0,8.9,0.1c1.7,0,3.4,0.1,5,0.2c0.7,0,1.3,0.2,2,0.4c0.9,0.4,1.4,1.2,1.3,2.2
		c-0.1,1-0.6,1.8-1.6,2c-0.7,0.2-1.3,0.2-2,0.2c-1.5,0-3-0.1-4.6-0.1c-0.2,0.7-0.3,1.3-0.4,1.9c-0.6,3.8-1.2,7.7-1.7,11.5
		c-0.1,0.8-0.3,1.7-0.5,2.4c-0.4,1.3-1.5,1.8-2.7,1.6c-1.2-0.2-2-1.3-1.9-2.5c0.2-2,0.5-3.9,0.8-5.9c0.7-4.7,1.2-8.2,1.2-8.2
		S108.8,65.4,108.6,65.4z"/>
</g>
</svg>
