<?xml version="1.0" encoding="utf-8"?>
<!-- Generator: Adobe Illustrator 27.3.1, SVG Export Plug-In . SVG Version: 6.00 Build 0)  -->
<svg version="1.1" id="Layer_1" xmlns="http://www.w3.org/2000/svg" xmlns:xlink="http://www.w3.org/1999/xlink" x="0px" y="0px"
	 viewBox="0 0 105 63" style="enable-background:new 0 0 105 63;" xml:space="preserve">
<g>
	<g>
		<path d="M0,61.8c1.3-9.1,3.9-18.5,10.8-25.3c1.2-7.3,3.2-14.7,7.3-21.1C22.2,8.8,28.6,4,36.5,1.8c8.4-2.3,17.3-1.9,25.9-1.1
			C70.8,1.4,79.8,2,87.4,5.7c3.7,1.8,6.8,4.3,9.1,7.5c2.3,3,3.8,6.5,5,10.1c1.1,3.7,1.9,7.4,2.5,11.2c0.6,3.7,1.3,7.5,0.8,11.2
			c-0.5,3.7-2.5,7.1-6.1,9c-3.5,1.9-7.6,2.5-11.6,2.9c-9.6,1.1-19.3,2.1-29,2c-9.7,0-19.4-1.2-28.5-4.4c-4.2-1.5-8.7-3.4-13.3-2.5
			c-4.1,0.8-7.5,3.2-10.4,5.8c-1.5,1.3-2.9,2.8-4.3,4.2C0.9,63.5-0.1,62.6,0,61.8z M20.6,50.7c4.7,0.5,9,2.7,13.5,4
			c4.4,1.3,9,2.1,13.6,2.6c9.4,0.9,19,0.4,28.4-0.4c4.5-0.4,9-0.8,13.4-1.4c3.7-0.5,7.7-1.4,10.3-4c2.8-2.7,3.2-6.7,3-10.3
			c-0.2-3.6-0.9-7.3-1.7-10.9c-1.4-7-3.7-14.3-9.4-19.4c-6.1-5.5-15-6.8-23.2-7.8c-8.3-0.9-16.8-1.9-25.1-0.9
			c-4.1,0.4-8.1,1.5-11.9,3.3c-3.4,1.7-6.5,4-8.9,6.8c-4.9,5.6-7.5,12.7-9.1,19.7c-0.4,1.7-0.7,3.5-1,5.2c0,0.3-0.2,0.5-0.4,0.6
			c-5.9,5.9-8.5,13.7-9.9,21.5C7.2,54.5,13.2,49.9,20.6,50.7L20.6,50.7z"/>
	</g>
</g>
<g>
	<path d="M36,40.6c-1.2-0.3-2.4-0.5-3.5-0.9c-3.8-1.5-6.4-5-5.9-10.3c0.5-5,3.2-8.7,7.9-10.8c1.8-0.8,3.7-0.9,5.6-0.5
		c0.9,0.2,1.6,0.6,2.3,1.2c0.9,0.9,1.2,2.2,0.6,3.4c-0.6,1.1-1.7,1.7-3.1,1.3c-0.9-0.2-1.8-0.6-2.8-0.4c-3.3,0.8-5.8,5.1-4.8,8.4
		c0.3,1.1,1.1,2,2.2,2.4c1.8,0.8,3.5,0.8,5.3,0.1c0.5-0.2,0.9-0.5,1.4-0.7c1.2-0.5,2.3-0.2,3.1,0.7c0.7,0.9,0.9,2.2,0.3,3.2
		c-0.4,0.8-1.1,1.3-1.9,1.7C40.6,40.4,38.3,40.8,36,40.6z"/>
	<path d="M54.2,35.9c0-0.1,0.1-0.2,0.1-0.3c0-0.8-1.3-1.4-1.5-1.4c-1-0.5-2-1-3-1.7c-4-2.7-3.2-7-1-9.3c2.5-2.6,5.6-3.6,9.1-3.1
		c0.7,0.1,1.5,0.4,2.1,0.8c1,0.6,1.3,1.8,0.9,2.8c-0.4,1-1.3,1.6-2.6,1.4c-0.8-0.1-1.1-0.2-1.8-0.3c-0.6-0.1-3-0.6-4.1,0.6
		c-0.2,0.2-0.6,0.8-0.6,1.8c0.1,0.8,0.6,1.1,1.2,1.4c0.9,0.5,1.9,1,2.8,1.5c0.9,0.6,1.8,1.1,2.6,1.9c1.9,1.9,1.8,4.6,0.1,6.6
		c-0.9,1-2,1.6-3.2,2.1c-1.7,0.7-3.5,1-5.4,1.1c-1.3,0.1-2.3-0.7-2.6-1.8c-0.4-1.3,0.4-2.6,1.8-3c0.4-0.1,0.7-0.2,0.9-0.2
		c0.6-0.1,0.9-0.1,1.3-0.2C52.2,36.8,53.8,36.7,54.2,35.9z"/>
	<path d="M71.4,37.8c0-0.1,0.1-0.2,0.1-0.3c0-0.8-1.3-1.4-1.5-1.4c-1-0.5-2-1-3-1.7c-4-2.7-3.2-7-1-9.3c2.5-2.6,5.6-3.6,9.1-3.1
		c0.7,0.1,1.5,0.4,2.1,0.8c1,0.6,1.3,1.8,0.9,2.8c-0.4,1-1.3,1.6-2.6,1.4c-0.8-0.1-1.1-0.2-1.8-0.3c-0.6-0.1-3-0.6-4.1,0.6
		c-0.2,0.2-0.6,0.8-0.6,1.8c0.1,0.8,0.6,1.1,1.2,1.4c0.9,0.5,1.9,1,2.8,1.5c0.9,0.6,1.8,1.1,2.6,1.9c1.9,1.9,1.8,4.6,0.1,6.6
		c-0.9,1-2,1.6-3.2,2.1c-1.7,0.7-3.5,1-5.4,1.1c-1.3,0.1-2.3-0.7-2.6-1.8c-0.4-1.3,0.4-2.6,1.8-3c0.4-0.1,0.7-0.2,0.9-0.2
		c0.6-0.1,0.9-0.1,1.3-0.2C69.5,38.7,71.1,38.6,71.4,37.8z"/>
</g>
</svg>
