<?xml version="1.0" encoding="utf-8"?>
<!-- Generator: Adobe Illustrator 27.3.1, SVG Export Plug-In . SVG Version: 6.00 Build 0)  -->
<svg version="1.1" id="Layer_1" xmlns="http://www.w3.org/2000/svg" xmlns:xlink="http://www.w3.org/1999/xlink" x="0px" y="0px"
	 viewBox="0 0 81.3 60.2" style="enable-background:new 0 0 81.3 60.2;" xml:space="preserve">
<g>
	<path d="M65.3,0c5,4.6,9.6,9.9,12.5,16.1c3,6.2,4.3,13.3,2.9,20.1c-1.3,6.1-5,11.2-9.9,15c-5.1,3.9-11.1,6.2-17.4,7.2
		c-7.6,1.2-15.2,0.7-22.8-0.2c-7.8-1-15.6-2.3-23.5-2.6c-1.2,0-2.3,0-3.5,0l8,3.5c0.8,0.3,0.1,1.5-0.7,1.2L0.3,55.5
		c-0.6-0.3-0.3-1.1,0.2-1.2L9.4,51c0.8-0.3,1.2,1,0.4,1.3L5,54.2c6.5,0,13,0.9,19.4,1.8c7.5,1,15,2,22.6,1.7
		c6.6-0.3,13.3-1.7,19.1-4.9c5.1-2.8,9.5-7,11.9-12.3c2.8-6.2,2.6-13.4,0.4-19.7C74.6,10.3,69,5.7,64.4,0.9L65.3,0z"/>
</g>
</svg>
