<?xml version="1.0" encoding="utf-8"?>
<!-- Generator: Adobe Illustrator 27.3.1, SVG Export Plug-In . SVG Version: 6.00 Build 0)  -->
<svg version="1.1" id="Layer_1" xmlns="http://www.w3.org/2000/svg" xmlns:xlink="http://www.w3.org/1999/xlink" x="0px" y="0px"
	 viewBox="0 0 128.6 83.6" style="enable-background:new 0 0 128.6 83.6;" xml:space="preserve">
<g>
	<g>
		<path d="M126.6,83.2c-1.7-1.9-3.4-3.8-5.2-5.6c-3.6-3.5-7.8-6.7-12.8-7.7c-5.7-1.2-11.1,1.4-16.3,3.4c-11.1,4.3-23,5.8-34.9,5.8
			c-11.9,0-23.8-1.3-35.6-2.7c-4.8-0.6-9.9-1.3-14.2-3.8c-4.4-2.6-6.8-7-7.4-12c-0.7-5,0.2-10,0.9-14.9c0.7-5,1.7-9.9,3.1-14.8
			c1.4-4.7,3.3-9.3,6.1-13.3c2.9-4.2,6.7-7.6,11.2-9.9c9.3-4.9,20.4-5.7,30.7-6.8C62.7-0.2,73.7-0.8,84,2.3
			c9.7,2.9,17.4,9.4,22.5,18.1c5,8.5,7.4,18.3,8.9,28C123.8,57.5,127,70,128.6,82C128.7,83.1,127.5,84.2,126.6,83.2z M103.4,67.3
			c9.1-1,16.4,5,22.3,11.3c-1.7-10.3-4.9-20.8-12.1-28.5c-0.3-0.1-0.5-0.4-0.5-0.8c-0.3-2.3-0.7-4.6-1.2-6.9
			c-1.9-9.3-5.1-18.7-11.1-26.1c-3-3.7-6.7-6.8-11-9C85.2,5,80.3,3.5,75.2,3C65,1.7,54.6,2.9,44.4,4.1c-10,1.2-20.8,3-28.4,10.3
			c-7,6.7-9.8,16.5-11.5,25.8c-0.9,4.8-1.8,9.6-2,14.4c-0.3,4.8,0.2,10,3.7,13.7c3.3,3.4,8.1,4.6,12.7,5.3c5.4,0.8,11,1.4,16.5,1.9
			c11.6,1.1,23.2,1.8,34.8,0.5c5.7-0.6,11.3-1.7,16.7-3.4C92.3,70.9,97.6,68,103.4,67.3L103.4,67.3z"/>
	</g>
</g>
<g>
	<path d="M27.4,44.6c0.1-0.3-0.8-0.1-1.1,0c-1.7,0.3-4.7,0.4-5.2,0.8c-0.5,0.4-0.4,3.7-0.9,5.6c-0.7,2.9-4.9,2.5-5.3-0.3
		c0.1-8,1.6-15.9,2.4-23.8c0-1.6,1.3-2.9,2.8-3c2.4,0,3.1,2.4,2.8,4.5c-0.4,3.7-3,11-1.4,10.9c1.6-0.1,5.2,0.1,6.2-0.8
		c1-0.9,1-9.4,2.8-13.7c0.4-0.8,1.1-1.3,2-1.4c0.8-0.1,1.7,0.1,2.3,0.8c1.1,1,0.8,2.5,0.5,3.7c-1.4,7.3-2.1,14.7-2.7,22.2
		c-0.1,0.6-0.3,1.2-0.6,1.7c-1.4,2.1-4.8,1-4.9-1.4C27.2,48.4,27.7,44.4,27.4,44.6z"/>
	<path d="M44.6,33.2c-0.3-0.1-3.2-0.3-4-0.1c-0.7,0.1-1.4,0.1-2.1,0c-1.2-0.2-2.1-1.2-2.2-2.3c-0.2-1.3,0.5-2.5,1.8-2.9
		c0.7-0.2,1.4-0.3,2.1-0.3c3.5,0,6.9,0,10.4,0c1.9,0,3.9,0.1,5.8,0.2c0.8,0,1.6,0.2,2.3,0.4c1.1,0.4,1.6,1.4,1.6,2.5
		c0,1.1-0.6,2.1-1.8,2.4c-0.8,0.2-1.6,0.3-2.3,0.3c-1.8,0-3.5,0-5.4,0c-0.2,0.9-0.3,1.5-0.4,2.2c-0.6,4.5-1.2,9-1.9,13.4
		c-0.1,1-0.3,1.9-0.6,2.9c-0.5,1.5-1.7,2.1-3.1,1.9c-1.4-0.2-2.4-1.5-2.2-2.9c0.2-2.3,0.6-4.6,0.9-6.9c0.7-5.5,1.3-9.5,1.3-9.5
		S44.8,33.3,44.6,33.2z"/>
	<path d="M71.5,39.3c0.6,0.3,2.1-2.1,3-2.9c1.1-1,2.2-2.1,3.3-3c0.7-0.6,1.4-1,2.2-1.4c2.3-1,4.5,0,5.2,2.4c0.2,0.8,0.3,1.6,0.3,2.4
		c0,2.2-0.1,4.4-0.1,6.6c-0.1,2.2-0.2,4.4-0.2,6.6c0,1,0,2-0.2,2.9c-0.2,1.8-1.4,2.9-2.9,2.8c-1.5-0.1-2.6-1.2-2.7-3
		c0-0.7,0-1.4,0-2.1c0.1-3.3,0.4-8.6,0.4-9.8c0-1.2,0-1.2-0.1-1.3c-0.1-0.1-1,0.6-1.3,0.9c-1.1,1-2.1,2.2-3.2,3.2
		c-0.7,0.7-1.5,1.3-2.3,1.7c-2,1.1-4.1,0.7-5.4-1.2c-0.7-1-1.1-2.2-1.6-3.3c-0.6-1.6-0.5-1.5-0.8-1.8c-0.3-0.3-0.6,0.5-0.7,0.8
		c-0.5,2.7-1,5.4-1.4,8.1c-0.2,1.2-0.4,2.5-0.7,3.7c-0.4,2-1.7,3.1-3.2,2.8c-1.5-0.3-2.7-1.6-2.3-3.8c0.2-1,0.3-2.1,0.4-3.2
		c0.7-4.4,1.4-8.8,2.8-13c0.3-0.9,0.6-1.8,1.1-2.7c0.8-1.5,1.8-2.9,3.8-2.8c2,0,3.1,1.3,3.8,2.9c0.6,1.4,1.1,2.8,1.6,4.2
		C70.7,37,71,39,71.5,39.3z"/>
	<path d="M94.3,54.1c3.2,0.2,6-0.1,9.1-0.1c3.9,0.6,2.7,5.6-0.9,5.5c-17.4,0.3-15.1,2.1-12.5-14.8c0.7-4,1.6-8,2.4-11.9
		c0.2-1.8,1.7-3.4,3.6-2.8c1.2,0.3,2.1,1.4,2,2.7C96.9,39.9,95,46.7,94.3,54.1z"/>
</g>
</svg>
