<?xml version="1.0" encoding="utf-8"?>
<!-- Generator: Adobe Illustrator 27.3.1, SVG Export Plug-In . SVG Version: 6.00 Build 0)  -->
<svg version="1.1" id="Layer_1" xmlns="http://www.w3.org/2000/svg" xmlns:xlink="http://www.w3.org/1999/xlink" x="0px" y="0px"
	 viewBox="0 0 153.7 91" style="enable-background:new 0 0 153.7 91;" xml:space="preserve">
<g>
	<g>
		<path d="M151.3,90.6c-2-2.1-4.1-4.1-6.3-6c-4.3-3.8-9.3-7.3-15.3-8.4c-6.8-1.3-13.3,1.5-19.5,3.7C97,84.4,82.7,86,68.6,86.1
			c-14.2,0-28.4-1.4-42.5-2.9c-5.8-0.6-11.8-1.4-16.9-4.2c-5.2-2.9-8.1-7.6-8.9-13.1C-0.5,60.5,0.5,55,1.4,49.7
			c0.8-5.4,2.1-10.8,3.7-16.1C6.7,28.4,9,23.4,12.3,19c3.4-4.5,8-8.2,13.4-10.8C36.9,3,50.1,2,62.4,0.9C75-0.3,88.1-0.8,100.3,2.5
			c11.6,3.2,20.8,10.2,26.9,19.6c5.9,9.3,8.9,19.9,10.6,30.5c10.1,9.9,13.9,23.5,15.8,36.6C153.9,90.4,152.4,91.7,151.3,90.6z
			 M123.6,73.3c10.9-1.1,19.6,5.4,26.6,12.3c-2-11.2-5.8-22.6-14.4-31.1c-0.4-0.2-0.6-0.5-0.6-0.8c-0.4-2.5-0.9-5-1.5-7.5
			c-2.3-10.1-6.1-20.4-13.3-28.4c-3.6-4-8-7.4-13.1-9.8c-5.4-2.5-11.3-4.1-17.4-4.7C77.7,1.8,65.2,3.1,53.1,4.5
			C41.2,5.8,28.2,7.8,19.2,15.7c-8.4,7.3-11.7,18-13.8,28C4.3,48.9,3.3,54.2,3,59.5c-0.3,5.2,0.2,10.9,4.4,14.9
			c3.9,3.7,9.7,5,15.1,5.7c6.5,0.9,13.1,1.5,19.7,2.1C56,83.4,70,84.1,83.8,82.7c6.8-0.6,13.5-1.9,20-3.7
			C110.3,77.2,116.6,74,123.6,73.3L123.6,73.3z"/>
	</g>
</g>
<g>
	<path d="M32.4,47.5c1,1.1,2.2,1.8,3.2,2.6c0.9,0.7,1.9,1.3,2.8,2.1c0.8,0.7,0.9,1.7,0.6,2.8c-0.3,1-1.1,1.4-2.1,1.6
		c-0.7,0.1-1.3-0.1-2.1-0.6c-1.3-0.8-1.7-1.4-3.1-2.8c-2.7-2.6-3.6-2.4-3.9-2.3c-0.1,0-0.2,0.1-0.3,0.2c0,1-0.1,1.8-0.1,2.6
		c-0.1,1.2-0.7,2.1-1.8,2.4c-0.6,0.2-1.4,0.2-2-0.1c-0.6-0.3-1.1-0.8-1.3-1.5c-0.2-0.6-0.3-1.3-0.3-2c-0.3-5.6-0.1-11.2,0.4-16.8
		c0.3-3.6,0.7-4,4.2-4.9c3.1-0.8,6-0.4,8.7,1.4c4,2.6,4.9,7.3,2,11.1c-0.8,1.1-2,2-3.1,2.9C33.6,46.6,33,47,32.4,47.5z M28.8,36.1
		c-0.5,0.1-0.9,0.6-1,1.1c-0.2,0.9-0.3,1.8-0.4,2.7c0,1,0,1.9,0.1,2.7c0,0.3,0.2,0.5,0.4,0.6c0.2,0.1,0.5,0.2,0.7,0.1
		c0.5-0.2,1.1-0.5,1.6-0.8c0.8-0.5,1.5-1,2.2-1.6c0.3-0.3,0.5-0.6,0.8-1c0.6-1,0.5-2-0.4-2.7C31.5,36.3,30.3,35.7,28.8,36.1z"/>
	<path d="M47.9,41.2c0.4,0.3,1.4,0.2,2.2,0.3c1.6,0.2,4.1,0.2,4.7,0.8c0.9,0.6,1.2,1.1,1.3,2.2c-0.2,3.7-7.9,2.1-8.4,2.5
		c-0.3,0.3-0.4,1.6-0.5,2.6c-0.1,1.2-0.9,3.2,0,3.2c4.1-0.1,6.4,0.5,6.5,1.7c0.3,0.9-0.1,2.1-0.8,2.8c-1.1,1.2-3.2,0.5-7.5,0.5
		c-2.9,0-3.9-2.7-3.7-5.2c0.4-6.2,0.7-12.4,1.3-18.5c0.3-1.9,1.2-2.8,3.2-2.9c2.8,0.1,5.7-0.2,8.5,0.3c2.7,0.7,2.4,4.6-0.3,5
		c-2,0.1-5.2-0.2-5.8,0C48,36.5,47.6,41,47.9,41.2z"/>
	<path d="M73.3,52.5l-9.2-0.1c-1,1.5-1.9,3.1-3.2,4.4c-2.1,1.9-5.4-0.8-4.1-3.3c3.2-5.6,6.2-11.5,9.7-16.9c0.6-0.8,1.2-1.5,1.9-2.1
		c4-3.5,7,0.3,7.7,4.4c1.1,5.3,2.6,10.6,3.3,16c0,2.8-4,3.7-5.2,1.1C73.9,54.8,73.7,53.9,73.3,52.5z M67.2,46.8
		c1.9,0.1,3.3,0.4,4.9,0c-0.1-2.1-0.6-4.2-1.4-6.1C69.3,42.6,68.2,44.6,67.2,46.8z"/>
	<path d="M92.8,59.2c-1.3-0.3-2.7-0.4-3.9-0.8c-4.3-1.4-7.4-5.1-7.1-10.9c0.2-5.6,2.9-9.8,8-12.3c1.9-1,4-1.2,6.1-0.9
		c1,0.1,1.8,0.5,2.6,1.2c1.1,0.9,1.4,2.4,0.9,3.6c-0.5,1.3-1.7,1.9-3.3,1.7c-1-0.2-2-0.6-3.1-0.2c-3.6,1-6.1,6-4.7,9.5
		c0.4,1.2,1.3,2.1,2.5,2.5c2,0.8,3.9,0.6,5.8-0.2c0.5-0.2,1-0.6,1.5-0.8c1.2-0.6,2.5-0.3,3.4,0.6c0.9,0.9,1.1,2.3,0.5,3.4
		c-0.4,0.9-1.1,1.5-2,2C97.8,58.7,95.3,59.3,92.8,59.2z"/>
	<path d="M107.7,41c-0.2-0.1-3-0.1-3.8,0c-0.7,0.1-1.3,0.2-2,0.1c-1.1-0.1-2-1-2.2-2.1c-0.2-1.2,0.4-2.4,1.6-2.8
		c0.6-0.2,1.3-0.4,1.9-0.4c3.3-0.2,6.5-0.3,9.8-0.5c1.8-0.1,3.7-0.1,5.5-0.1c0.7,0,1.5,0.1,2.2,0.3c1.1,0.4,1.6,1.3,1.6,2.3
		c0,1.1-0.5,2-1.6,2.3c-0.7,0.2-1.5,0.3-2.2,0.4c-1.7,0.1-3.3,0.1-5.1,0.2c-0.1,0.8-0.3,1.5-0.3,2.1c-0.4,4.2-0.8,8.5-1.2,12.8
		c-0.1,0.9-0.2,1.8-0.4,2.7c-0.4,1.4-1.5,2.1-2.9,1.9c-1.3-0.2-2.3-1.3-2.2-2.6c0.1-2.2,0.3-4.3,0.5-6.5c0.4-5.2,0.8-9,0.8-9
		S108,41.1,107.7,41z"/>
</g>
</svg>
