<svg xmlns="http://www.w3.org/2000/svg" width="98.344" height="87.03" viewBox="0 0 98.344 87.03">
  <defs>
    <style>
      .cls-1 {
        fill-rule: evenodd;
      }
    </style>
  </defs>
  <g id="Euroclear" transform="translate(-63.674 -178.713)">
    <path id="Path_2" data-name="Path 2" class="cls-1" d="M111.827,236.4h5.125c.152-1.986-.622-4.063-2.927-4.063a3.559,3.559,0,0,0-3.594,3.821c0,2.669,1.56,4.123,3.929,4.123a4.548,4.548,0,0,0,2.517-.879l-.4-.742a3.776,3.776,0,0,1-2.078.65,2.74,2.74,0,0,1-2.562-2.911c-.027-1.955.712-3.092,2.168-3.092,1.2,0,1.7,1,1.7,2.181l-3.812,0-.069.916" transform="translate(22.195 25.458)"/>
    <path id="Path_3" data-name="Path 3" d="M78.82,240.045v-7.581H77.459v4.428c0,1.47-.867,2.335-1.913,2.335-1.227,0-1.836-.758-1.836-2.186v-4.577H72.346v4.883c0,1.91.941,2.88,2.684,2.88a3.524,3.524,0,0,0,2.442-1.06l1.348.879" transform="translate(4.117 25.516)"/>
    <path id="Path_4" data-name="Path 4" d="M81.415,232.522V240.1h1.364v-4.079c0-1.683.575-2.38,1.274-2.38a2.336,2.336,0,0,1,1.016.319l.622-.88a1.448,1.448,0,0,0-2.4-.2l-.546.577-1.335-.941" transform="translate(8.422 25.458)"/>
    <path id="Path_5" data-name="Path 5" class="cls-1" d="M91.511,240.285a3.98,3.98,0,1,0-3.732-4.063,3.746,3.746,0,0,0,3.732,4.063m0-6.974c1.715,0,2.277,1.546,2.277,2.911,0,1.426-.488,3.092-2.277,3.092s-2.261-1.666-2.261-3.092C89.251,234.857,89.813,233.311,91.511,233.311Z" transform="translate(11.443 25.458)"/>
    <path id="Path_6" data-name="Path 6" d="M102.789,238.74a3.312,3.312,0,0,1-1.851.546c-1.835,0-2.638-1.487-2.638-3.063a2.62,2.62,0,0,1,2.654-2.88,3.734,3.734,0,0,1,1.562.392l.454-.773a3.3,3.3,0,0,0-2.032-.621,3.852,3.852,0,0,0-4.11,3.955,3.779,3.779,0,0,0,4.05,3.989,4.181,4.181,0,0,0,2.29-.789l-.379-.757" transform="translate(15.738 25.458)"/>
    <path id="Path_7" data-name="Path 7" d="M106.64,241.255v-10.4l-1.367-.936v11.338h1.367" transform="translate(19.747 24.307)"/>
    <path id="Path_8" data-name="Path 8" d="M127.461,232.522V240.1h1.366v-4.079c0-1.683.575-2.38,1.273-2.38a2.342,2.342,0,0,1,1.016.319l.622-.88a1.448,1.448,0,0,0-2.4-.2l-.546.577-1.335-.941" transform="translate(30.28 25.458)"/>
    <g id="Group_2" data-name="Group 2" transform="translate(63.674 257.799)">
      <path id="Path_9" data-name="Path 9" class="cls-1" d="M67.268,232.341a3.559,3.559,0,0,0-3.594,3.821c0,2.669,1.56,4.123,3.927,4.123a4.54,4.54,0,0,0,2.517-.879l-.394-.742a3.78,3.78,0,0,1-2.078.65,2.743,2.743,0,0,1-2.563-2.911H70.2c.152-1.986-.622-4.063-2.927-4.063M65.137,235.5c.19-1.394.9-2.184,2.118-2.184,1.2,0,1.7,1,1.7,2.181Z" transform="translate(-63.674 -232.341)"/>
      <path id="Path_10" data-name="Path 10" class="cls-1" d="M123.4,235.661c.183,2.367-1.06,3.564-2.029,3.564a1.19,1.19,0,0,1-1.093-1.289c0-.957.619-1.532,1.82-1.9l1.3-.38m-.031,3.153c1.5,1.507,1.336,1.29,1.336,1.29.028-2.606.028-5.185.028-5.185,0-2.215-1.668-2.578-2.8-2.578a3.437,3.437,0,0,0-2.594,1.031l.531.683a2.9,2.9,0,0,1,1.986-.82,1.56,1.56,0,0,1,1.517,1.516l-1.836.577c-1.576.47-2.7,1.305-2.7,2.624a2.122,2.122,0,0,0,2.153,2.334,2.9,2.9,0,0,0,1.9-1Z" transform="translate(-37.487 -232.341)"/>
    </g>
    <path id="Path_11" data-name="Path 11" d="M114.218,186.7c-13.926-3.374-29.4,2.811-35.685,16.3s-1.3,29.81,10.24,38.308A30.122,30.122,0,0,1,114.218,186.7" transform="translate(3.653 2.449)"/>
    <path id="Path_12" data-name="Path 12" d="M91.111,248.865c17.238,1.09,35.546-9.156,40.189-26.483s-5.931-35.995-21.413-43.669c19.369,5.189,31.637,25.45,26.447,44.819s-25.855,30.522-45.223,25.333" transform="translate(13.025 0)"/>
    <path id="Path_13" data-name="Path 13" d="M92.554,195.045c-6.7,6.561-7.668,17.584-2.364,25.754s15.129,10.771,23.852,7.312c-9.133,5.93-21.939,3.533-27.872-5.6s-2.746-21.538,6.384-27.468" transform="translate(9.249 7.753)"/>
    <path id="Path_14" data-name="Path 14" d="M98.633,199.382a6.542,6.542,0,1,1-7.673,5.172,5.264,5.264,0,0,0,5.277,5.315,5.168,5.168,0,0,0,5.021-3.846,5.449,5.449,0,0,0-2.625-6.641" transform="translate(12.895 9.812)"/>
    <path id="Path_15" data-name="Path 15" d="M107.261,218.552a14.519,14.519,0,0,0-15.47-23.806c6.576-4.268,15.8-2.545,20.066,4.03s1.979,15.507-4.6,19.776" transform="translate(13.347 6.502)"/>
  </g>
</svg>
