<?xml version="1.0" encoding="utf-8"?>
<!-- Generator: Adobe Illustrator 24.2.3, SVG Export Plug-In . SVG Version: 6.00 Build 0)  -->
<svg version="1.1" id="Layer_1" xmlns="http://www.w3.org/2000/svg" xmlns:xlink="http://www.w3.org/1999/xlink" x="0px" y="0px"
	 viewBox="0 0 496.5 496.5" style="enable-background:new 0 0 496.5 496.5;" xml:space="preserve">
<style type="text/css">
	.st0{fill:none;stroke:#000000;stroke-width:8.4233;}
</style>
<g>
	<path class="st0" d="M248.2,492.3c134.8,0,244-109.3,244-244c0-134.8-109.3-244-244-244c-134.8,0-244,109.3-244,244
		C4.2,383,113.5,492.3,248.2,492.3L248.2,492.3z"/>
	<path d="M426.5,75.7l-4.1-61.4L287.2,32.4L287,36l3.9,57.9l10.8-1.4c10.2-1.4,17-0.9,20.3,1.5c3.3,2.3,5.1,6.5,5.5,12.4
		c0.3,4.2-0.8,12.2-3.2,23.9l-51,235.7l-0.6-1.7l-0.1,2.6l-109-208.7c-6.8-13.1-10.5-21.8-11.1-26.2c-0.5-3.6,0.3-7.3,2.3-11
		c2.1-3.7,4.9-6.4,8.4-8s12-3.3,25.3-5.2l6.7-0.9l-8.6-61.2l-97,13.6l-65.6,85c3.5,4,8.5,11.7,15.1,23.2l183,324.1l15.3-2.1l20,2.1
		h14.1l1.3-0.1v-1.8l3.6-0.2l9.8-2.4l9.8-2.4l2.3-1.1l0.1,0.6l7.2-0.2l1.1-6.3l0,0L389,121.5c4.6-19.7,9.7-32.3,15.2-38
		C407.8,79.8,415.3,77.2,426.5,75.7L426.5,75.7z"/>
	<path d="M157.9,433.5l7.7,4.5l3.1-5.3l-6.4-3.7l10.5-10.7l-6.7-3.9l-10.5,10.7l-6.5-3.8l10.5-10.7l-6.7-3.9l-10.5,10.7l-8.4-4.9
		l-3.1,5.3l7.1,4.1l-5.5,5.6l-7.6-4.4l-3.1,5.3l6.3,3.6l-10.6,10.8l6.7,3.9l10.6-10.8l6.5,3.8l-10.6,10.8l6.7,3.9l10.6-10.8l8.5,4.9
		l3.1-5.3l-7.2-4.2L157.9,433.5L157.9,433.5z M151.2,429.6l-5.5,5.6l-6.5-3.8l5.5-5.6L151.2,429.6L151.2,429.6z"/>
	<path d="M342.4,432.7l5.6-2.9l-2.6-5l-5.6,2.9l-3.4-6.7l-7.8,4l3.4,6.7l-4,2.1l2.6,5l4-2.1l6.3,12.2c0.8,1.5,1.4,2.7,2.2,4
		c2.3,3.7,5.2,4.7,11,1.7c1.7-0.9,3.2-1.8,4.6-2.9l-2.6-5c-3.9,2.3-5.1,2.2-6.6-0.4c-0.4-0.7-0.9-1.6-1.3-2.5L342.4,432.7
		L342.4,432.7z M380.6,418.5c-4.5-6.5-12.7-9.7-20.6-4.2c-7.8,5.4-8.8,14.4-3.7,21.8c6,8.7,14.3,9.1,21.2,4.3
		c6-4.2,8.5-10.4,5.9-16.9l-7.1,5c1.2,2.6,0.4,5.2-2.1,6.9c-2.7,1.9-5.7,1.9-9.4-2.5l17.2-12C381.6,420,381.1,419.1,380.6,418.5
		L380.6,418.5z M363.2,419.5c2.7-1.9,5.5-1.2,8.3,2l-9.7,6.7C360,424.1,360.6,421.3,363.2,419.5L363.2,419.5z M409.3,413.2l6.2-5.9
		c-2.6-2.1-4.1-3.4-5.7-5.1l-6.3-6.5c-1.2-1.3-2.4-2.4-3.5-3.4c-4-3.5-9-4.1-15.4,2c-5.3,5.1-6.7,11.8-2.1,16.9l6.1-5.8
		c-1.9-2.3-2-4.6,0-6.5c1.9-1.8,3.9-1.7,5.2-0.5c0.8,0.6,1.3,1.2,1.9,1.8l0.4,0.4l-1.4,1.3c-7.6,7.3-9.1,14.1-4.6,18.8
		c3.9,4.1,9.3,3.2,13-0.3c2-1.9,3.4-4.1,4-6.5l-1.2-3.2L409.3,413.2L409.3,413.2z M401.4,413.5c-1.7,1.7-3.7,2-5.3,0.3
		c-2.4-2.5-0.6-6.1,3.6-9.5l1.5,1.6C403.8,408.5,403.3,411.6,401.4,413.5L401.4,413.5z M430.4,348.8c-3.8-1.8-8.4-1-11.7,3.8
		c-1.5,2.2-2.2,4.1-2.2,6.2l1.6,4.8c-3.4-0.9-7.2,0.3-10,4.4c-1.6,2.3-2.2,4.1-2.2,6.3l1.8,3.9l-3.8-2.6l-5,7.2l24.6,17l5-7.2
		l-12.8-8.8c-5-3.5-6.6-6.5-4.6-9.3c1.6-2.4,3.9-2.6,6.5-1.3c1.3,0.7,2.7,1.6,3.9,2.4l12.7,8.8l5-7.2l-12.8-8.8
		c-5-3.5-6.5-6.5-4.6-9.3c1.6-2.3,3.9-2.6,6.5-1.2c1.3,0.7,2.7,1.6,3.9,2.4l12.7,8.8l5-7.2l-14.5-10
		C433.2,350.3,431.8,349.5,430.4,348.8L430.4,348.8z"/>
</g>
</svg>
