<?xml version="1.0" encoding="utf-8"?>
<!-- Generator: Adobe Illustrator 24.2.3, SVG Export Plug-In . SVG Version: 6.00 Build 0)  -->
<svg version="1.1" id="Layer_1" xmlns="http://www.w3.org/2000/svg" xmlns:xlink="http://www.w3.org/1999/xlink" x="0px" y="0px"
	 viewBox="0 0 471 123" style="enable-background:new 0 0 471 123;" xml:space="preserve">
<g>
	<path d="M27.97,58.91c0,4.33-0.45,8.66-0.9,12.99c-0.9,8.96-1.05,18.07-1.34,27.03c-0.15,4.18-0.6,8.21-0.6,12.4
		c0,2.24,0.15,4.63,0.45,6.87c-1.49,4.33-8.36,3.88-12.1,3.88c-3.29,0-5.38-1.49-6.72-4.63c1.64-3.14,1.79-28.68,1.79-33.6
		c0-24.05,1.94-48.09,1.94-72.14c0-1.64,0.3-4.48,1.49-5.82c2.24-2.54,6.27-2.54,9.26-2.54h4.48c4.03,4.78,8.96,28.97,12.99,38.68
		c2.39,5.82,4.48,11.65,6.87,17.32v-0.15c0.9,2.54,2.09,5.08,3.29,7.62c0-3.58-0.3-7.02-0.3-10.6c0-14.49,2.24-28.97,2.24-43.46
		c0-2.09-0.6-4.03-0.6-6.12c0-2.09,0.45-4.03,1.34-5.97c5.23,1.19,18.52-0.9,18.52,6.57c0,3.73-0.6,7.62-0.75,11.35
		c-0.6,13.44-1.19,26.88-1.94,40.32c-0.3,5.97-0.45,11.95-0.6,17.92c-0.3,8.81-1.05,17.77-1.19,26.58c0,4.48,0.45,9.56-0.3,14.04
		c-0.75,4.33-5.38,5.38-9.11,5.38c-2.54,0-5.97-0.3-7.77-2.24c-1.34-1.49-17.18-48.39-18.37-53.17L27.97,58.91z"/>
	<path d="M106.53,3.35c7.47,0,15.68,3.58,21.21,8.66c8.36,7.77,9.56,20.76,9.56,31.51c0,8.81-0.6,17.62-1.19,26.44
		c-0.3,4.78-1.19,9.26-1.64,14.04c-0.45,5.38-0.15,10.46-1.49,15.83c-3.44,13.29-13.29,22.25-27.33,22.25
		c-15.23,0-24.05-15.08-24.05-28.83c0-5.08-1.05-10.16-1.34-15.08c-0.45-7.02-0.15-14.04-0.15-21.06c0-6.42,0.6-12.99,0.75-19.42
		c0.15-3.29,1.34-13.59,1.2-15.53C85.92,12.46,95.63,3.35,106.53,3.35z M101.6,22.02c-2.54,2.24-3.44,7.32-4.18,10.45v-0.3
		c-1.19,3.44-0.75,9.56-0.75,13.29c0,9.26-0.15,18.67-0.15,27.93c0,3.44-0.6,6.72-0.6,10.16c0,3.29,0.6,6.12,1.19,9.26
		c0.45,2.09,0.3,4.18,1.34,6.27c1.79,3.43,5.53,5.38,9.26,5.38c2.39,0,4.93-0.9,6.87-2.24c5.97-4.33,6.87-32.86,6.87-40.18
		c0-4.48-0.75-8.81-0.75-13.14c0-4.03,0.3-7.92,0.3-11.95c0-3.73-0.3-7.47-1.94-10.75l0.15,0.15c-2.09-4.03-6.57-6.87-11.2-6.87
		c-2.54,0-4.48,0.75-6.27,2.54H101.6z"/>
	<path d="M142.38,1.86c9.71,0,19.56-0.15,29.27-0.15c3.29,0,6.42,0.6,9.56,1.34c0.75,3.29,1.05,6.72,1.05,10.16
		c0,1.19,0,2.39-0.15,3.58c-4.33,1.94-8.81,1.94-13.44,1.94h-0.75c-0.6,5.83,0.15,11.65,0.15,17.47c0,6.87-0.9,13.59-0.9,20.46
		c0,14.79-0.6,29.57-0.6,44.36c0,6.87,0.3,13.59,0.75,20.46c-3.58,0-7.02,0.6-10.6,0.6c-1.79,0-3.58-0.15-5.38-0.45
		c-0.45-3.14-0.45-6.12-0.45-9.26c0-4.93,0.3-9.86,0.3-14.79c0-8.81-0.3-17.32,0.6-26.14v0.15c0.45-4.48,0.6-8.81,0.6-13.29
		c0-9.41-0.6-18.67-1.34-27.93c-0.3-3.29,0.15-6.57,0.15-9.86c0-0.6,0-1.34-0.15-1.94h-5.38c-1.64,0-3.14-0.15-4.63-0.45
		c-0.6-2.99-1.49-6.27-1.49-9.41c0-2.39,0.45-4.78,0.75-7.17C141.03,1.56,141.78,1.86,142.38,1.86z"/>
	<path d="M233.48,106.55h2.84c2.24,1.34,3.29,3.73,3.29,6.27c0,2.69-1.05,6.87-2.84,8.96c-2.69-0.3-5.23-0.45-7.92-0.45
		c-7.02,0-13.89,0.75-20.91,0.75c-3.58,0-8.51-0.45-10.6-3.73c-1.19-5.68-1.94-20.16-1.94-26.29c0-0.6,0.15-1.34,0.15-2.09
		c0.3-9.56,0.3-19.12,0.3-28.68c0-15.53-1.19-31.06-1.19-46.6v-3.44c0.15-6.42,3.73-6.87,9.11-6.87c7.47,0,15.08-0.3,22.55-0.3
		c3.88,0,7.77,0.15,11.65,0.45c1.64,4.48,1.49,8.96,2.09,13.59c-5.82,1.64-10.45,1.34-16.43,1.34c-3.88,0-7.92,0.75-11.8,0.75
		c-0.15,0.9-0.15,1.94-0.15,2.84c0,3.73,1.34,36.59,1.19,36.59c1.34,0,2.69-0.3,4.03-0.3c4.03,0,8.51,0.75,12.4,1.34
		c0.15,1.19,0.15,2.39,0.15,3.43c0,3.14-0.45,6.27-1.19,9.26c-0.9,0.3-1.94,0.6-2.99,0.6c-8.36,0.3-11.2,0.45-12.4,0.45
		c-0.45,0-0.9-0.15-1.19-0.3v1.79c0,9.86,1.19,19.71,1.05,29.57C219.29,107.45,226.61,106.55,233.48,106.55z"/>
	<path d="M273.06,58.91c0,4.33-0.45,8.66-0.9,12.99c-0.9,8.96-1.05,18.07-1.34,27.03c-0.15,4.18-0.6,8.21-0.6,12.4
		c0,2.24,0.15,4.63,0.45,6.87c-1.49,4.33-8.36,3.88-12.1,3.88c-3.29,0-5.38-1.49-6.72-4.63c1.64-3.14,1.79-28.68,1.79-33.6
		c0-24.05,1.94-48.09,1.94-72.14c0-1.64,0.3-4.48,1.49-5.82c2.24-2.54,6.27-2.54,9.26-2.54h4.48c4.03,4.78,8.96,28.97,12.99,38.68
		c2.39,5.82,4.48,11.65,6.87,17.32v-0.15c0.9,2.54,2.09,5.08,3.29,7.62c0-3.58-0.3-7.02-0.3-10.6c0-14.49,2.24-28.97,2.24-43.46
		c0-2.09-0.6-4.03-0.6-6.12c0-2.09,0.45-4.03,1.34-5.97c5.23,1.19,18.52-0.9,18.52,6.57c0,3.73-0.6,7.62-0.75,11.35
		c-0.6,13.44-1.19,26.88-1.94,40.32c-0.3,5.97-0.45,11.95-0.6,17.92c-0.3,8.81-1.05,17.77-1.19,26.58c0,4.48,0.45,9.56-0.3,14.04
		c-0.75,4.33-5.38,5.38-9.11,5.38c-2.54,0-5.97-0.3-7.77-2.24c-1.34-1.49-17.18-48.39-18.37-53.17L273.06,58.91z"/>
	<path d="M332.5,103.42v0.3c5.08-0.15,8.21,3.73,8.21,8.51c0,4.18-2.54,8.36-7.17,8.36c-4.78,0-8.96-3.58-8.96-8.51
		C324.59,107.6,328.17,104.01,332.5,103.42z"/>
	<path d="M373.28,58.91c0,4.33-0.45,8.66-0.9,12.99c-0.9,8.96-1.04,18.07-1.34,27.03c-0.15,4.18-0.6,8.21-0.6,12.4
		c0,2.24,0.15,4.63,0.45,6.87c-1.49,4.33-8.36,3.88-12.1,3.88c-3.29,0-5.38-1.49-6.72-4.63c1.64-3.14,1.79-28.68,1.79-33.6
		c0-24.05,1.94-48.09,1.94-72.14c0-1.64,0.3-4.48,1.49-5.82c2.24-2.54,6.27-2.54,9.26-2.54h4.48c4.03,4.78,8.96,28.97,12.99,38.68
		c2.39,5.82,4.48,11.65,6.87,17.32v-0.15c0.9,2.54,2.09,5.08,3.29,7.62c0-3.58-0.3-7.02-0.3-10.6c0-14.49,2.24-28.97,2.24-43.46
		c0-2.09-0.6-4.03-0.6-6.12c0-2.09,0.45-4.03,1.34-5.97c5.23,1.19,18.52-0.9,18.52,6.57c0,3.73-0.6,7.62-0.75,11.35
		c-0.6,13.44-1.19,26.88-1.94,40.32c-0.3,5.97-0.45,11.95-0.6,17.92c-0.3,8.81-1.05,17.77-1.2,26.58c0,4.48,0.45,9.56-0.3,14.04
		c-0.75,4.33-5.38,5.38-9.11,5.38c-2.54,0-5.97-0.3-7.77-2.24c-1.34-1.49-17.18-48.39-18.37-53.17L373.28,58.91z"/>
	<path d="M445.42,16.19c0,7.47-0.15,15.08-0.9,22.55c-0.45,4.18-0.9,8.51-0.9,12.69c0,11.8-0.9,23.6-0.9,35.4
		c0,5.23,0.15,10.45,0.6,15.68c3.29,0.9,6.87,0.6,10.31,0.6c3.29,0,6.57,0.15,9.71,0.75c1.34,2.09,2.09,4.48,2.09,6.87
		c0,2.84-0.6,5.67-0.3,8.51c-12.1,6.12-35.25-1.94-38.38,1.49c-0.9-1.79-1.49-3.58-1.49-5.53c0-19.86,1.04-39.88,1.34-59.74
		c0.15-9.71,1.2-19.42,1.2-29.12c0-3.44-1.05-6.72-1.05-10.01c0-4.18-0.45-8.51,2.09-12.1c3.88-0.75,8.21,0.3,11.8-0.75
		c-0.15-0.15,0.3-0.3,0.75-0.3C445.56,3.2,445.42,13.51,445.42,16.19z"/>
</g>
</svg>
