<?xml version="1.0" encoding="utf-8"?>
<!-- Generator: Adobe Illustrator 27.1.1, SVG Export Plug-In . SVG Version: 6.00 Build 0)  -->
<svg version="1.1" id="Dave.nl_Logo" xmlns="http://www.w3.org/2000/svg" xmlns:xlink="http://www.w3.org/1999/xlink" x="0px"
	 y="0px" width="1548.8px" height="659.7px" viewBox="0 0 1548.8 659.7" style="enable-background:new 0 0 1548.8 659.7;"
	 xml:space="preserve">
<path id="D" d="M46.8,469.9c5.6,22.4,20.6,30.8,45.2,32.2c35.5,0.9,69-12.5,98.1-34.8c29.1-22,53.7-52.8,72-80.5
	c24.3-37.9,35.2-83.9,35.3-125.4c0-5.2-0.1-10.4-0.4-15.5s-0.8-10.1-1.4-15.1c-1.3-9.9-3.2-19.5-5.7-28.7
	c-5-18.4-12.5-35.4-22.3-50.8c-19.5-31-48.1-55.8-84.2-74.8c-36.1-18.4-79.8-31-128-22.5C9.2,63.4-5,91.9,1.5,130.6
	C9.7,180,32.3,408.3,46.8,469.9L46.8,469.9L46.8,469.9z M95.5,138.5c56.8-4,103.8,48.8,111.6,98.2c12.3,68.9-24.3,122.6-79.8,159.8
	C112.8,331.2,93.3,170.5,95.5,138.5L95.5,138.5L95.5,138.5L95.5,138.5z"/>
<path id="A" d="M588.8,396.5c22.2,36.9,80.2,16.5,75.1-25.4c-20.1-79.4-51.8-156.1-77.5-234c-17.6-60.2-68.3-111.9-122.6-51.9
	c-9.4,10.9-17.6,22.7-24.4,35.3c-43.1,87.8-77.3,180-115.9,269.9c-14.8,39.7,38.3,73.2,67.1,41.6c17.5-20.7,27.5-46.9,39.8-71
	l137.1-14.7C576.5,366.3,579.6,378.9,588.8,396.5L588.8,396.5L588.8,396.5z M507.1,173.2c15.3,27.7,26.1,57.8,31.7,89
	c-22.5,8.7-44.6,6.6-73,9C477.3,237.6,491.1,204.8,507.1,173.2L507.1,173.2L507.1,173.2z"/>
<path id="V" d="M811,253.6c-14.7-53.2-33.6-105.4-46.7-159.1c-2.2-9.2-8.8-22.4-20.4-35.9c-11.3-13.2-33.3-15.4-48.6-8.1
	c-17.7,8.6-27.2,27.1-23.1,44.8c0.5,2.5,1.3,4.9,2.2,7.2c29.6,76.3,58.4,152.8,87.2,229.2c4.3,10.5,9.8,20.4,16.5,29.7
	c27.6,39.8,69.7,40.6,98.2,1.4c9.7-13.3,17.2-28.3,24.9-42.9c40.3-76.6,82.5-152.8,126.3-228.6c3.4-5.5,6.6-11.1,9.3-16.8
	c2.3-5.4,3.6-10.8,4-15.9c0.2-2.6,0.1-5.1-0.2-7.5c-0.3-2.4-0.8-4.8-1.6-7c-3.1-9-9.8-16.6-19.8-21.5c-7.5-3.8-16.1-5.3-24.7-4.4
	c-15.5,1.9-25.1,12-29.9,17c-3.1,3.2-5.7,6.7-7.9,10.5c-25.6,43.3-48,88-67.4,133.7c-26.1,64-45.6,114.6-61,112.9
	C822.4,291.8,819.3,283.7,811,253.6L811,253.6L811,253.6z"/>
<path id="E" d="M1195.8,80c11.4-1.2,64,6.4,96.2,8.1c22.5-0.9,36.2-15.3,39-31.5c2.7-16.1-5.7-34.1-27.7-41.5
	c-45.9-11.9-95.1-11.5-142.3-15c-32.9-1.1-48.2,11.3-54.8,39.5c-12.1,89.9-19.3,180.5-29.2,270.7c-3.8,37,10.5,77.1,53.9,79.4
	c64.9,3.6,95.7,17.1,114.5,1c10.7-9.2,19.1-25.6,15.2-39.9c-0.3-17.7-34.5-30.9-99.1-33.1c-13.6-0.4-0.8-28.8,2.2-46.9
	c2.4-14.4,4.5-33.6,9.9-37.1c8.6-6,127.9,28,136.6-25.8c0.3-16.4-4.2-23.9-18.2-34c-10-8.7-50.8-12.6-75.7-17.3
	c-12.4-1.6-29.7-1.8-35.5-6.4C1174.8,145.7,1184.4,81,1195.8,80L1195.8,80L1195.8,80L1195.8,80z"/>
<path id="_x21_" d="M1544.7,71.3c2.7-9.4,4-19.2,4.1-29c-1.1-20.5-16.6-37.6-37.1-40.9c-18.9-3.6-37.7,5.9-45.7,23
	c-4.2,8.9-7.4,18.2-9.6,27.8c-15.8,62.6-31.3,125.3-46.7,188c-2.2,8.1-3.4,16.5-3.7,24.9c-0.5,19,12.3,36,30.9,41.2
	c20.5,6.4,41.1-0.9,51.1-19.4c4.3-8.8,7.6-18.1,9.8-27.6c8-29.8,14.4-60.1,22-90C1528.1,136.6,1536.7,104.1,1544.7,71.3L1544.7,71.3
	L1544.7,71.3z M1430.9,351.2c-22-5.7-47.3,8.9-53.6,30.8c-6.8,23.5,9.8,50.6,34,55.5c23.7,4.3,46.4-10.4,51.7-33.4
	C1468.2,381.2,1453.5,357,1430.9,351.2L1430.9,351.2L1430.9,351.2z"/>
<path id="_x2D_" d="M969.8,549.4c9.4,0.3,18.8-0.1,28-1.2c26.8-3.5,42.9-16.2,40.8-33.3c-0.1-0.5-0.1-1-0.2-1.5s-0.2-1-0.4-1.5
	c-0.3-1-0.6-2-1-3c-0.8-2-1.9-3.9-3.2-5.7c-2.6-3.6-6.3-6.9-10.6-9.8c-8.7-5.7-20.5-9.6-33.5-10.6c-12.5-0.7-25.2-0.7-37.6-0.2
	c-92.2,1.6-184.4,3.4-276.4,5.6c-39,1-78,2.2-116.7,4c-20.4,0.9-40.3,2.7-59.2,5.5c-10.9,1.6-19.2,5.5-24.6,10.3
	c-2.7,2.4-4.6,5-5.7,7.8c-0.5,1.4-0.9,2.8-1,4.2c-0.1,0.7-0.1,1.4,0,2.1c0,0.4,0.1,0.7,0.1,1.1c0.1,0.4,0.1,0.7,0.2,1.1
	c2.7,11.4,19.7,21.4,42.2,23.3c9.2,0.5,18.6,0.7,28,0.4c70.3-0.2,140.6-0.5,226.8-0.7C823,547.8,896.4,548.6,969.8,549.4
	L969.8,549.4L969.8,549.4z"/>
<path id="_x2D__00000073684416821916849190000009542165582221471380_" d="M845.3,659.1c5.4,0.6,11,0.8,16.6,0.5
	c16.5-1.2,28.8-9.6,31.5-22.1c0.1-0.4,0.1-0.8,0.2-1.1c0.1-0.4,0.1-0.7,0.1-1.1c0.1-0.7,0.1-1.5,0.1-2.2c0-1.5-0.2-2.9-0.6-4.3
	c-0.7-2.8-2.1-5.3-4-7.6c-3.8-4.6-9.8-7.9-17.2-9.3c-7.2-1.1-14.6-1.8-22-2c-54.3-3.4-108.7-6.6-163-9.5c-23-1.2-46.1-2.3-69.2-2.8
	c-12.1-0.4-24.2,0-35.9,1c-6.7,0.7-12.5,3-16.7,6.2c-2.1,1.6-3.8,3.4-5.1,5.3c-0.6,1-1.2,2-1.5,3c-0.2,0.5-0.4,1-0.5,1.5
	c-0.1,0.3-0.1,0.5-0.2,0.8c0,0.3-0.1,0.5-0.1,0.8c-1,8.3,6.6,16.4,19.4,18.9c5.3,0.8,10.7,1.4,16.3,1.7
	c41.2,3.3,82.4,6.5,132.8,10.6C759.8,650.7,802.6,654.9,845.3,659.1L845.3,659.1L845.3,659.1z"/>
</svg>
