<?xml version="1.0" standalone="no"?>
<!DOCTYPE svg PUBLIC "-//W3C//DTD SVG 20010904//EN"
 "http://www.w3.org/TR/2001/REC-SVG-20010904/DTD/svg10.dtd">
<svg version="1.0" xmlns="http://www.w3.org/2000/svg"
 width="600.000000pt" height="600.000000pt" viewBox="0 0 600.000000 600.000000"
 preserveAspectRatio="xMidYMid meet">
<metadata>
Created by potrace 1.14, written by Peter Selinger 2001-2017
</metadata>
<g transform="translate(0.000000,600.000000) scale(0.100000,-0.100000)"
fill="#000000" stroke="none">
<path d="M2947 5754 c-1 -1 -81 -5 -177 -9 -96 -4 -202 -8 -235 -10 -33 -2
-116 -6 -185 -9 -209 -11 -291 -15 -380 -21 -284 -17 -372 -20 -625 -20 -154
0 -336 3 -405 8 -276 17 -385 20 -605 21 -222 1 -231 0 -266 -22 -45 -27 -63
-69 -56 -124 11 -83 56 -117 215 -158 341 -90 442 -167 486 -375 13 -61 15
-328 13 -2085 l-2 -2015 -23 -65 c-37 -101 -78 -149 -173 -200 -72 -38 -175
-74 -294 -102 -163 -38 -215 -76 -222 -167 -5 -58 11 -89 61 -115 46 -23 128
-25 541 -11 458 16 1076 12 1445 -10 36 -2 119 -6 185 -9 66 -3 188 -9 270
-13 197 -9 706 -9 820 0 98 8 235 24 275 32 14 3 43 8 65 11 102 13 445 106
530 144 11 5 70 30 130 57 180 78 428 220 540 309 17 14 35 28 40 32 112 79
304 266 425 412 34 41 70 84 79 96 44 51 194 289 244 384 162 308 256 609 311
1000 25 170 25 519 0 710 -26 204 -98 478 -171 650 -74 176 -245 471 -340 585
-14 16 -44 53 -67 80 -117 141 -346 350 -501 456 -27 19 -52 37 -55 40 -11 13
-209 128 -289 168 -346 174 -726 284 -1121 326 -89 9 -476 25 -483 19z m28
-448 c258 -22 490 -100 710 -239 44 -28 82 -54 85 -57 3 -3 28 -23 55 -45 284
-225 517 -610 644 -1062 32 -117 76 -318 85 -398 4 -27 8 -61 11 -75 28 -164
44 -591 30 -810 -7 -115 -16 -225 -20 -240 -2 -8 -7 -40 -10 -70 -13 -121 -68
-361 -116 -504 -185 -563 -538 -934 -1029 -1080 -258 -77 -585 -92 -845 -41
-338 68 -508 231 -555 530 -8 49 -11 637 -11 1952 -1 2112 -6 1957 72 2027 86
78 186 102 479 113 91 3 166 6 167 7 4 3 182 -3 248 -8z"/>
</g>
</svg>
