<?xml version="1.0" standalone="no"?>
<!DOCTYPE svg PUBLIC "-//W3C//DTD SVG 20010904//EN"
 "http://www.w3.org/TR/2001/REC-SVG-20010904/DTD/svg10.dtd">
<svg version="1.0" xmlns="http://www.w3.org/2000/svg"
 width="3402.000000pt" height="3402.000000pt" viewBox="0 0 3402.000000 3402.000000"
 preserveAspectRatio="xMidYMid meet">
<metadata>
Created by potrace 1.14, written by Peter Selinger 2001-2017
</metadata>
<g transform="translate(0.000000,3402.000000) scale(0.100000,-0.100000)"
fill="#000000" stroke="none">
<path d="M0 17354 l0 -4645 1958 4 c1076 2 1980 6 2007 10 28 3 81 9 118 12
76 6 147 14 192 20 17 2 66 9 111 15 44 6 90 12 101 14 11 3 38 7 59 11 85 13
103 16 214 40 63 14 158 37 210 51 52 13 104 27 114 29 86 20 421 137 536 187
849 372 1464 912 1897 1668 135 234 303 619 369 840 29 99 103 374 107 396 3
16 14 72 26 124 11 52 25 123 31 157 5 35 12 75 15 90 3 16 9 64 15 108 6 44
12 94 15 110 2 17 6 59 10 95 3 36 8 83 10 105 25 252 26 956 1 1105 -3 14 -7
63 -11 110 -3 47 -8 94 -10 105 -2 11 -7 45 -11 75 -7 65 -7 67 -28 190 -20
121 -23 135 -48 250 -25 115 -23 108 -33 145 -210 822 -565 1466 -1095 1987
-178 176 -249 236 -430 370 -527 389 -1226 670 -1960 787 -36 5 -83 13 -105
17 -22 3 -53 8 -70 10 -157 17 -312 33 -415 41 -41 3 -936 8 -1987 9 l-1913 4
0 -4646z m3705 2492 c274 -31 271 -31 400 -57 106 -22 236 -55 270 -70 11 -4
58 -23 105 -40 204 -77 411 -213 560 -369 186 -195 344 -495 430 -815 26 -96
24 -88 55 -250 24 -132 31 -177 41 -275 3 -30 7 -68 9 -85 25 -182 25 -850 0
-1065 -2 -19 -6 -62 -10 -95 -3 -33 -12 -103 -21 -155 -8 -52 -17 -111 -20
-130 -3 -19 -22 -97 -41 -174 -145 -578 -417 -956 -848 -1178 -64 -33 -217
-98 -240 -102 -5 -1 -14 -4 -20 -7 -15 -9 -204 -58 -250 -64 -22 -3 -47 -8
-55 -11 -8 -3 -33 -7 -55 -10 -22 -3 -49 -7 -61 -9 -11 -3 -52 -7 -90 -11 -38
-3 -80 -8 -94 -11 -14 -3 -314 -8 -667 -10 l-643 -5 0 2499 c0 1375 2 2502 5
2505 8 8 1169 2 1240 -6z"/>
<path d="M11475 21991 c-2 -5 -38 -109 -79 -232 -40 -123 -167 -507 -282 -854
-114 -346 -208 -632 -209 -635 0 -3 -90 -275 -199 -605 -267 -807 -327 -988
-585 -1775 -123 -371 -229 -691 -236 -710 -14 -36 -47 -137 -51 -155 -1 -5
-42 -131 -92 -280 -49 -148 -196 -594 -326 -990 -131 -396 -240 -727 -243
-735 -3 -8 -7 -19 -9 -25 -5 -22 -367 -1114 -385 -1165 -11 -30 -25 -71 -30
-90 -6 -19 -26 -80 -44 -135 -18 -55 -90 -272 -160 -483 -69 -210 -128 -389
-131 -397 -5 -13 155 -15 1357 -13 l1362 3 219 725 c120 399 240 797 266 885
l48 160 1529 1 c1134 1 1532 -1 1538 -10 6 -9 25 -69 33 -101 1 -5 16 -55 32
-110 17 -55 54 -176 82 -270 28 -93 64 -213 80 -265 16 -52 43 -142 60 -200
17 -58 40 -132 50 -165 10 -33 30 -98 44 -145 14 -47 49 -161 77 -255 28 -93
56 -189 62 -212 l10 -43 1363 0 1362 0 -13 43 c-8 23 -70 213 -140 422 -145
438 -409 1238 -410 1245 -1 3 -4 12 -8 20 -6 17 -451 1366 -617 1875 -62 187
-114 347 -117 355 -4 8 -7 17 -8 20 -1 5 -336 1021 -465 1410 -99 299 -427
1292 -679 2055 -132 402 -323 980 -424 1285 l-183 555 -1722 2 c-947 1 -1724
-2 -1727 -6z m1804 -2693 c45 -150 80 -267 129 -433 17 -55 67 -221 112 -370
45 -148 117 -387 160 -530 80 -266 150 -497 355 -1175 64 -212 118 -392 120
-400 3 -14 -101 -16 -956 -16 -527 0 -959 1 -959 1 0 0 6 23 14 50 15 54 272
905 356 1180 29 94 57 186 62 205 6 19 48 161 95 315 47 154 104 345 128 425
24 80 93 310 154 512 61 202 111 370 111 373 0 3 17 5 38 5 l38 0 43 -142z"/>
<path d="M17235 21982 c3 -9 33 -98 65 -197 33 -99 106 -322 163 -495 57 -173
216 -652 352 -1065 136 -412 293 -889 350 -1060 56 -170 203 -614 325 -985
122 -371 272 -823 332 -1005 60 -181 217 -658 349 -1060 133 -401 312 -944
398 -1205 87 -261 190 -576 230 -700 41 -124 77 -234 82 -245 4 -11 49 -144
98 -295 50 -151 141 -429 203 -618 l113 -342 1725 2 1724 3 62 185 c34 102
158 480 277 840 119 360 275 833 347 1050 72 217 133 402 135 410 2 8 58 179
125 380 132 399 581 1758 720 2180 48 146 208 630 355 1075 147 446 324 981
393 1190 207 629 413 1251 527 1595 59 179 111 337 115 352 l8 27 -1424 0
-1424 0 -16 -57 c-9 -31 -45 -154 -79 -272 -68 -233 -182 -624 -245 -840 -22
-74 -86 -297 -144 -495 -206 -706 -297 -1020 -301 -1035 -2 -8 -13 -46 -25
-85 -12 -38 -23 -77 -25 -85 -5 -22 -93 -325 -116 -400 -11 -36 -22 -72 -24
-80 -2 -8 -15 -55 -29 -105 -15 -49 -28 -97 -31 -105 -2 -8 -15 -55 -30 -105
-31 -105 -86 -293 -184 -630 -38 -132 -101 -350 -141 -485 -39 -135 -102 -351
-140 -480 -37 -129 -82 -284 -100 -344 -17 -60 -33 -117 -35 -125 -2 -9 -22
-77 -45 -151 -22 -74 -42 -142 -45 -150 -2 -8 -13 -49 -25 -90 -11 -41 -23
-82 -25 -90 -2 -8 -13 -46 -25 -85 -12 -38 -33 -112 -48 -162 l-26 -93 -37 0
c-40 0 -34 -12 -85 170 -7 25 -38 131 -69 235 -31 105 -62 213 -70 240 -8 28
-37 129 -65 225 -29 96 -60 204 -70 240 -10 36 -35 121 -55 190 -55 187 -106
361 -115 395 -4 17 -13 42 -19 58 -6 15 -8 27 -6 27 2 0 0 12 -6 27 -5 15 -39
128 -75 252 -127 436 -226 778 -286 981 -33 113 -62 214 -65 225 -8 30 -167
579 -213 735 -22 74 -94 322 -160 550 -66 228 -134 460 -150 515 -29 97 -147
506 -251 865 -28 96 -59 204 -70 240 -29 97 -34 115 -70 240 -18 63 -37 120
-42 127 -7 9 -334 12 -1429 12 -1327 0 -1419 -1 -1413 -17z"/>
<path d="M27699 21802 c0 -221 0 -9009 1 -9059 l0 -33 3160 0 3160 0 0 1015 0
1015 -22 1 c-13 0 -868 1 -1900 1 l-1878 0 0 798 0 797 1873 1 c1029 0 1884 1
1900 1 l27 1 0 1015 0 1015 -1900 0 -1900 0 0 798 0 797 1898 0 1897 1 3 1016
2 1017 -3160 0 -3160 0 -1 -197z"/>
</g>
</svg>
