<?xml version="1.0" standalone="no"?>
<!DOCTYPE svg PUBLIC "-//W3C//DTD SVG 20010904//EN"
 "http://www.w3.org/TR/2001/REC-SVG-20010904/DTD/svg10.dtd">
<svg version="1.0" xmlns="http://www.w3.org/2000/svg"
 width="3388.000000pt" height="3388.000000pt" viewBox="0 0 3388.000000 3388.000000"
 preserveAspectRatio="xMidYMid meet">
<metadata>
Created by potrace 1.14, written by Peter Selinger 2001-2017
</metadata>
<g transform="translate(0.000000,3388.000000) scale(0.100000,-0.100000)"
fill="#000000" stroke="none">
<path d="M8555 33834 c-496 -30 -888 -79 -1317 -164 -2148 -425 -4076 -1632
-5412 -3390 -1083 -1424 -1712 -3134 -1816 -4934 -6 -108 -10 -794 -10 -1741
l0 -1563 1713 -5 c1671 -5 1768 -6 2067 -38 649 -68 1246 -232 1755 -482 222
-109 307 -158 496 -283 848 -559 1431 -1394 1723 -2466 76 -278 136 -623 173
-988 22 -221 25 -937 5 -1155 -88 -949 -326 -1698 -749 -2353 -244 -377 -586
-747 -938 -1013 -762 -575 -1703 -886 -2840 -939 -115 -5 -929 -10 -1807 -10
l-1598 0 0 -1804 c0 -1843 2 -1972 40 -2366 230 -2367 1403 -4556 3255 -6075
1142 -937 2501 -1580 3943 -1865 355 -71 689 -116 1112 -152 227 -19 16964
-19 17180 0 293 26 450 43 655 73 3105 449 5764 2506 6995 5414 395 933 630
1953 690 2989 6 110 10 870 10 1982 l0 1804 -3250 0 -3250 0 0 4865 0 4865
3250 0 3250 0 0 1564 c0 948 -4 1634 -10 1742 -111 1916 -812 3719 -2025 5199
-365 446 -811 892 -1260 1260 -1263 1037 -2793 1712 -4400 1944 -212 30 -270
37 -580 68 -158 16 -757 17 -8585 18 -4628 1 -8437 0 -8465 -1z m7641 -16654
c882 -2670 1603 -4858 1604 -4863 0 -4 -640 -6 -1421 -5 l-1421 3 -274 910
c-150 501 -278 920 -283 933 l-11 22 -1599 0 c-1154 0 -1602 -3 -1607 -11 -3
-6 -131 -426 -284 -933 l-278 -921 -1421 -3 c-781 -1 -1421 0 -1421 2 0 4
3193 9680 3205 9714 3 10 370 12 1806 10 l1803 -3 1602 -4855z m3331 4843 c4
-9 453 -1551 999 -3427 l992 -3411 42 0 43 0 996 3425 996 3425 1488 3 c818 1
1487 -1 1487 -5 0 -5 -722 -2193 -1603 -4863 l-1603 -4855 -1804 0 -1803 0
-1603 4855 c-882 2670 -1603 4858 -1604 4863 0 4 668 7 1485 7 1382 0 1486 -1
1492 -17z"/>
<path d="M12749 19358 c0 -2 -218 -723 -483 -1603 l-484 -1600 1006 -3 c553
-1 1006 -1 1008 1 1 1 -215 722 -480 1602 l-483 1600 -42 3 c-22 2 -41 2 -42
0z"/>
<path d="M30020 19075 l0 -835 1930 0 1930 0 0 835 0 835 -1930 0 -1930 0 0
-835z"/>
<path d="M2010 17176 l0 -2626 599 0 c329 0 656 5 727 10 387 30 666 99 929
230 180 89 298 175 433 314 225 232 375 518 472 901 73 284 104 516 122 907
19 415 -5 838 -67 1183 -67 370 -178 667 -342 915 -98 148 -285 337 -423 429
-203 134 -457 235 -735 290 -291 58 -370 63 -1072 68 l-643 5 0 -2626z"/>
<path d="M30020 15275 l0 -835 1930 0 1930 0 0 835 0 835 -1930 0 -1930 0 0
-835z"/>
</g>
</svg>
