<?xml version="1.0" standalone="no"?>
<!DOCTYPE svg PUBLIC "-//W3C//DTD SVG 20010904//EN"
 "http://www.w3.org/TR/2001/REC-SVG-20010904/DTD/svg10.dtd">
<svg version="1.0" xmlns="http://www.w3.org/2000/svg"
 width="2000.000000pt" height="2000.000000pt" viewBox="0 0 2000.000000 2000.000000"
 preserveAspectRatio="xMidYMid meet">
<metadata>
Created by potrace 1.11, written by Peter Selinger 2001-2013
</metadata>
<g transform="translate(0.000000,2000.000000) scale(0.100000,-0.100000)"
fill="#000000" stroke="none">
<path d="M9025 19979 c-496 -43 -1102 -198 -1712 -438 -215 -85 -466 -208
-578 -283 -70 -47 -93 -57 -185 -77 -551 -119 -978 -266 -1150 -392 l-29 -22
-128 27 c-368 75 -704 76 -906 3 -85 -31 -1101 -618 -1177 -680 -73 -60 -156
-168 -205 -267 -57 -113 -128 -341 -178 -570 -25 -113 -49 -224 -52 -248 -6
-36 -38 -85 -189 -285 -1078 -1429 -1682 -2568 -1807 -3410 -89 -600 -20
-1373 202 -2256 167 -667 460 -1336 880 -2008 87 -138 89 -144 109 -250 84
-441 291 -952 653 -1609 246 -448 469 -760 747 -1048 420 -434 917 -716 1446
-822 78 -15 90 -20 86 -36 -2 -9 1 -93 7 -185 6 -93 27 -406 46 -698 89 -1348
171 -2329 265 -3180 66 -598 130 -1202 130 -1226 0 -18 11 -19 396 -19 l397 0
-7 85 c-20 264 -102 793 -187 1214 -27 134 -48 245 -46 247 10 11 687 -316
821 -396 331 -198 421 -277 557 -485 195 -298 184 -290 527 -425 228 -90 271
-110 358 -171 l99 -69 2922 0 2922 0 -6 33 c-16 77 -16 77 87 119 199 80 526
249 797 410 72 43 135 78 139 78 4 0 -5 -15 -22 -33 l-29 -32 32 29 c18 16 30
33 27 37 -3 5 8 14 23 21 15 7 57 36 93 64 134 106 200 137 200 92 0 -13 26
23 68 93 69 115 142 229 148 229 3 0 -9 -34 -80 -219 -20 -52 -35 -95 -33 -97
2 -2 84 102 183 231 98 129 183 234 187 235 10 0 2 -47 -29 -172 -13 -53 -24
-100 -23 -105 0 -4 67 125 150 287 82 162 147 286 145 275 -61 -248 -96 -403
-93 -415 5 -22 70 112 105 215 38 114 84 304 112 460 12 66 23 121 24 123 4 4
36 -182 36 -210 0 -15 5 -30 11 -34 9 -5 10 199 6 782 l-5 789 64 855 c35 470
69 927 75 1014 22 290 3 643 -47 889 l-15 77 105 263 c236 590 263 715 273
1243 6 349 -2 479 -48 752 -75 452 -188 808 -513 1623 -160 401 -180 478 -180
689 l0 155 123 535 c118 513 123 541 128 675 9 235 3 264 -207 1004 -172 609
-221 795 -209 804 2 2 74 48 159 103 1549 986 2715 2002 3363 2932 102 145
186 311 219 427 17 61 22 107 22 195 0 102 -3 124 -30 201 -40 113 -103 206
-211 310 -187 181 -477 333 -893 469 -771 253 -1763 354 -3140 322 -1025 -25
-1684 -98 -2146 -238 -63 -19 -117 -34 -122 -34 -4 0 -73 34 -152 76 -495 260
-957 498 -1315 677 -513 257 -653 322 -810 377 -44 15 -145 51 -225 80 -526
187 -1056 262 -1555 219z m590 -179 c314 -30 658 -115 1050 -261 88 -33 180
-67 205 -76 115 -40 1036 -500 1913 -954 137 -71 254 -129 261 -129 7 0 64 13
127 30 427 111 978 182 1729 222 373 20 1506 17 1800 -5 991 -74 1579 -202
2191 -474 302 -135 445 -256 516 -440 36 -94 38 -240 4 -360 -13 -46 -26 -83
-30 -83 -3 1 -27 35 -53 78 -64 105 -153 213 -299 364 -216 220 -440 342 -804
438 -370 97 -913 163 -1590 194 l-110 5 85 -29 85 -29 -110 4 c-315 13 -1362
17 -1620 6 -1543 -65 -2954 -305 -4370 -745 -575 -178 -1322 -457 -1765 -659
-1573 -716 -3111 -1955 -4668 -3760 -89 -103 -162 -189 -162 -192 0 -11 -582
-2221 -586 -2225 -3 -2 -2 14 0 35 3 22 13 92 22 155 86 636 230 1173 603
2240 l61 175 -66 -70 c-90 -96 -293 -327 -404 -460 -293 -352 -423 -566 -693
-1141 -97 -207 -143 -286 -178 -305 -86 -45 -167 230 -200 677 -18 236 4 466
63 668 11 40 16 72 11 77 -17 17 -117 32 -158 25 -25 -5 -50 -20 -71 -41 -34
-37 -120 -197 -153 -285 -53 -143 -144 -513 -331 -1340 -98 -434 -132 -531
-177 -504 -25 15 -40 74 -68 259 -13 88 -44 241 -68 340 -74 298 -91 420 -91
640 0 271 37 458 129 652 61 130 106 193 220 312 111 116 225 206 325 256 85
43 283 116 385 143 204 53 560 111 948 153 114 13 205 24 203 26 -1 2 -66 12
-143 23 -683 96 -1360 108 -1740 31 -201 -41 -328 -94 -468 -193 -181 -129
-367 -351 -488 -583 -15 -29 -16 -23 -17 111 0 269 29 529 87 757 201 805 785
1850 1736 3110 l180 238 48 215 c117 521 182 687 324 829 77 77 99 91 582 368
277 159 520 297 541 307 145 70 455 71 869 2 l161 -27 34 23 c164 115 567 253
1098 377 179 41 189 45 271 98 305 199 980 457 1547 591 242 58 439 90 722
119 81 9 444 6 545 -3z m9119 -3445 c-141 -152 -415 -419 -590 -574 -76 -68
-121 -106 -99 -83 65 66 790 772 794 772 1 0 -45 -52 -105 -115z m-5151 -1166
c368 -33 702 -119 985 -254 387 -186 761 -549 1055 -1026 59 -97 67 -115 87
-215 12 -60 68 -260 125 -444 57 -184 117 -384 135 -445 17 -60 33 -115 35
-122 2 -7 -23 10 -57 37 -138 111 -306 172 -478 172 -140 1 -228 -21 -376 -91
-216 -104 -515 -329 -490 -370 3 -5 -5 -24 -17 -43 -39 -57 -153 -436 -136
-453 6 -5 429 82 629 130 172 41 218 42 291 4 87 -44 214 -186 341 -384 102
-159 102 -162 3 -39 -136 166 -286 270 -435 300 -122 24 -295 15 -455 -25
-138 -34 -335 -104 -270 -96 491 61 628 56 805 -26 131 -61 150 -79 250 -229
51 -77 91 -142 89 -144 -11 -11 -38 -7 -74 10 -32 15 -61 19 -145 18 -93 -1
-117 -5 -215 -38 -156 -52 -382 -165 -441 -221 l-49 -45 80 36 c44 20 94 41
110 48 l30 13 2 -57 c1 -31 8 -72 16 -92 14 -34 16 -35 88 -42 41 -4 132 -10
203 -12 l129 -5 90 -46 c89 -46 213 -130 281 -190 l36 -32 0 -93 c0 -199 38
-336 209 -767 244 -612 356 -937 426 -1240 83 -361 109 -554 126 -926 20 -454
-3 -662 -142 -1275 -22 -96 -47 -208 -56 -248 l-17 -73 -52 160 c-112 343
-277 620 -514 864 -112 116 -159 151 -254 188 l-70 27 3 60 c2 62 -7 91 -40
128 -19 20 -18 20 69 43 120 31 277 94 338 135 50 34 159 144 150 153 -2 2
-17 -2 -33 -10 -84 -43 -175 -32 -612 78 -163 40 -345 83 -406 95 -216 42
-399 37 -564 -15 -42 -13 -139 -40 -216 -60 -77 -20 -257 -74 -399 -122 l-259
-86 -81 11 c-160 21 -236 76 -305 220 -48 103 -73 221 -92 434 -6 73 -14 151
-18 173 l-7 40 -28 -90 c-83 -263 -110 -432 -103 -630 7 -194 43 -293 142
-384 111 -102 210 -120 562 -102 564 30 638 11 854 -218 78 -81 89 -96 71 -99
-31 -5 -139 29 -282 88 -300 124 -479 132 -784 33 -60 -19 -129 -44 -154 -54
-75 -33 -57 -15 42 40 52 28 105 61 118 72 l23 20 -25 -6 c-14 -4 -131 -49
-260 -100 -129 -51 -236 -93 -237 -92 -1 1 53 32 120 69 119 65 178 103 147
93 -8 -2 -117 -36 -241 -75 -125 -38 -350 -99 -500 -134 -593 -139 -673 -162
-836 -237 -186 -85 -342 -226 -412 -371 -87 -183 -95 -216 -196 -882 -53 -342
-109 -677 -125 -746 -75 -310 -186 -565 -358 -829 l-55 -83 -29 48 c-44 71
-50 75 -33 19 34 -108 35 -104 -51 -210 -44 -53 -85 -104 -92 -113 -9 -12 -15
-13 -20 -6 -119 190 -198 312 -200 309 -2 -2 24 -97 58 -211 l61 -207 -52 -53
c-30 -30 -56 -54 -60 -54 -3 0 -108 184 -234 410 -125 226 -232 410 -237 410
-17 0 -1 -59 109 -415 120 -386 145 -476 137 -484 -3 -3 -16 6 -29 21 -13 16
-229 388 -481 829 -251 440 -458 799 -460 797 -2 -2 73 -210 166 -463 93 -253
168 -461 166 -463 -2 -1 -151 243 -332 542 -181 300 -335 546 -343 546 -24 0
-5 -80 84 -365 46 -148 83 -270 82 -272 -2 -1 -122 254 -267 567 -146 313
-266 565 -268 561 -1 -4 56 -191 127 -416 72 -225 129 -411 127 -412 -1 -1
-139 337 -306 752 -166 416 -304 754 -306 752 -2 -2 66 -237 151 -522 86 -284
155 -519 153 -520 -2 -2 -118 272 -257 608 -373 897 -383 919 -392 910 -5 -5
12 -83 37 -173 42 -152 90 -387 81 -396 -2 -2 -104 204 -226 458 -122 255
-227 467 -232 472 -26 27 -3 -122 56 -373 36 -151 63 -276 61 -278 -2 -2 -99
281 -215 629 -116 348 -216 640 -221 648 -18 29 -23 -2 -12 -74 6 -40 50 -252
96 -471 47 -220 84 -400 83 -402 -4 -4 -159 467 -206 627 -106 358 -168 687
-206 1094 -16 173 -34 648 -36 956 l0 175 -30 -170 c-16 -93 -33 -181 -38
-195 -7 -22 -9 -18 -15 30 -5 44 -24 1121 -27 1550 0 57 -3 87 -8 75 -5 -11
-48 -231 -97 -489 -60 -318 -90 -455 -92 -425 -6 86 48 1993 56 1998 5 3 80
63 168 132 1345 1061 2736 1886 4004 2374 763 293 1640 512 2270 565 69 5 141
12 160 14 90 8 585 5 693 -5z m-7348 -3191 c-7 -40 -41 -273 -76 -518 -35
-245 -65 -436 -67 -425 -1 11 8 225 22 475 l23 454 49 43 c27 23 52 43 55 43
3 0 1 -33 -6 -72z m-189 -195 c-23 -146 -46 -265 -57 -283 -5 -9 -9 57 -9 162
l0 177 37 30 c20 17 39 29 41 26 2 -2 -3 -52 -12 -112z m9414 -453 c0 -13 -11
-13 -30 0 -12 8 -11 10 8 10 12 0 22 -4 22 -10z m-12007 -1067 c-7 -2 -21 -2
-30 0 -10 3 -4 5 12 5 17 0 24 -2 18 -5z m-186 -132 c50 -10 243 -113 372
-199 177 -118 362 -267 515 -414 l81 -78 -60 26 c-33 14 -89 43 -125 64 -194
113 -334 168 -490 195 -52 9 -147 27 -210 41 -139 31 -325 42 -425 25 -213
-37 -422 -189 -524 -381 -90 -169 -137 -382 -126 -570 18 -313 94 -563 286
-950 205 -413 367 -639 783 -1092 274 -300 745 -694 924 -774 73 -33 136 -32
158 1 52 79 -56 352 -203 515 -48 53 -65 63 -214 129 -89 40 -188 90 -219 111
-149 102 -296 323 -458 690 -211 481 -348 1031 -312 1255 27 168 109 258 246
271 154 14 287 -40 405 -163 116 -122 133 -196 123 -553 -5 -197 -3 -269 10
-366 60 -451 280 -833 552 -960 116 -54 236 -85 354 -91 98 -5 112 -3 201 26
133 43 162 78 123 153 -21 41 -54 84 -203 269 -150 185 -186 239 -242 366
l-43 98 0 135 c0 120 3 144 27 215 53 158 186 348 271 389 136 64 253 -74 352
-416 74 -257 165 -780 260 -1492 69 -516 28 -871 -124 -1093 -78 -113 -85
-116 -267 -137 -48 -6 -51 -5 -70 26 -29 46 -62 62 -251 122 -648 204 -990
407 -1342 798 -259 289 -634 864 -871 1338 -219 438 -352 809 -431 1201 -89
441 12 842 264 1050 97 79 274 165 402 195 121 28 411 42 501 25z m11665
-3702 c201 -37 379 -113 512 -219 158 -125 288 -340 451 -738 36 -90 64 -166
62 -168 -2 -3 -15 0 -29 5 -18 7 -33 28 -53 75 -15 37 -30 65 -31 63 -2 -2 41
-174 97 -381 55 -208 98 -380 96 -383 -2 -2 -57 98 -122 222 -64 125 -119 225
-121 223 -2 -2 41 -145 95 -318 54 -173 101 -326 105 -340 3 -14 -22 31 -58
101 -66 129 -91 163 -101 138 -3 -8 20 -147 50 -309 29 -162 53 -296 51 -297
-2 -2 -24 54 -50 125 -50 136 -71 179 -62 127 6 -31 73 -472 81 -535 3 -19
-10 16 -29 78 -18 62 -37 116 -40 120 -14 13 -24 -23 -20 -67 10 -88 82 -996
80 -998 -1 -1 -28 118 -61 265 -63 288 -73 326 -74 277 -1 -35 35 -831 44
-977 4 -62 2 -98 -4 -98 -6 0 -35 80 -66 178 -73 230 -78 242 -87 242 -11 0
-12 9 37 -378 25 -194 45 -356 45 -360 -1 -4 -16 45 -35 108 -40 139 -74 230
-84 230 -12 0 -21 -157 -22 -374 -1 -105 -4 -233 -8 -285 l-6 -94 -44 214
c-49 239 -55 257 -69 218 -15 -37 -48 -242 -69 -417 -10 -84 -20 -152 -23
-152 -3 0 -14 31 -23 69 -20 77 -38 107 -58 99 -8 -3 -61 -118 -119 -254
l-105 -249 -12 164 c-7 90 -14 165 -16 168 -9 8 -52 -62 -130 -216 -44 -86
-77 -147 -73 -137 13 38 56 264 56 297 0 19 -4 40 -9 48 -19 30 -103 -60 -216
-231 -21 -32 -39 -58 -40 -58 -2 0 28 60 66 133 38 72 69 138 69 145 1 42 -94
-24 -280 -196 -57 -53 -100 -90 -95 -82 5 8 44 68 87 133 44 65 82 126 85 135
4 9 -39 -26 -95 -80 -109 -103 -184 -158 -215 -158 -16 0 -18 5 -11 32 8 41
58 148 119 256 25 45 44 82 42 82 -3 0 -52 -71 -110 -158 -115 -171 -171 -241
-183 -229 -11 11 29 164 86 329 27 76 46 138 44 138 -2 0 -28 -51 -58 -113
-59 -123 -108 -197 -132 -197 -8 0 -22 16 -30 36 -13 30 -15 76 -12 245 2 114
0 205 -3 201 -4 -4 -39 -110 -78 -237 -40 -126 -73 -230 -74 -232 -2 -1 -25
102 -51 230 -27 128 -53 236 -57 241 -4 5 -41 -58 -83 -140 -65 -130 -75 -145
-76 -114 0 19 -7 132 -15 250 -8 118 -15 228 -15 243 0 16 -4 26 -8 23 -5 -3
-33 -63 -63 -133 l-54 -128 -5 230 c-6 263 -3 263 -70 3 -18 -71 -36 -128 -40
-128 -4 0 -10 57 -14 128 -9 171 -17 243 -27 237 -4 -3 -34 -43 -65 -88 -32
-45 -62 -86 -67 -92 -6 -6 -8 64 -4 198 3 114 2 207 -1 207 -4 0 -53 -87 -110
-193 l-104 -192 6 75 c3 41 19 140 35 220 17 79 29 146 27 147 -1 2 -29 -7
-62 -18 -75 -27 -187 -35 -275 -20 l-68 13 -84 151 c-46 84 -145 265 -219 402
-563 1043 -810 1582 -839 1828 -18 151 -22 331 -10 403 14 83 42 175 52 172 4
-2 114 -76 245 -166 132 -89 343 -231 469 -314 1262 -831 1677 -1008 2300
-982 106 4 194 2 260 -6 55 -7 161 -12 235 -12 156 0 216 15 302 78 112 82
144 187 135 438 -6 172 -32 345 -88 575 -23 98 -29 138 -24 179 5 41 10 52 21
48 9 -4 14 2 14 17 0 18 -2 19 -11 7 -8 -11 -9 -5 -5 26 3 23 11 106 16 185
32 442 -68 651 -346 724 -119 31 -253 15 -434 -50 -109 -40 -110 -40 -163 -2
l-47 35 102 26 c57 14 137 36 178 49 82 25 79 25 292 -14z m-61 -447 c47 -24
129 -106 140 -141 3 -6 28 1 64 20 108 54 148 29 165 -106 12 -94 11 -314 -2
-400 -16 -107 -39 -173 -75 -214 -19 -22 -43 -68 -55 -101 -64 -191 -293 -291
-667 -291 -225 0 -472 34 -1111 156 -157 30 -361 64 -455 75 -217 27 -311 48
-504 110 -216 71 -280 111 -328 204 -23 44 -27 63 -27 141 0 111 25 183 83
239 37 36 43 38 86 34 63 -8 134 -57 230 -160 l79 -85 77 116 c87 132 137 186
194 212 106 48 237 -4 315 -126 24 -36 44 -65 45 -65 1 0 20 30 41 67 73 124
151 193 219 193 40 0 134 -37 192 -75 30 -20 87 -67 128 -106 48 -46 76 -66
79 -58 2 8 14 48 26 89 42 142 91 209 189 254 36 16 66 21 142 21 90 0 100 -2
164 -35 106 -54 158 -147 188 -339 l11 -74 22 113 c42 214 88 315 157 345 54
24 128 19 188 -13z m-4387 -2602 l6 -45 -18 29 c-11 19 -16 42 -13 65 3 29 5
32 11 16 4 -11 10 -40 14 -65z m251 -352 c19 -64 35 -120 35 -125 0 -4 -18 20
-40 54 -36 57 -40 68 -40 129 0 37 2 65 5 63 2 -3 20 -58 40 -121z m-346 -108
c1 -13 0 -13 -9 0 -5 8 -9 24 -9 35 l0 20 9 -20 c5 -11 9 -27 9 -35z"/>
<path d="M12330 12758 c-207 -13 -547 -83 -620 -128 -25 -15 -77 -35 -116 -44
-149 -33 -317 -87 -519 -168 -116 -45 -214 -85 -220 -87 -5 -2 24 20 65 49
135 95 132 93 -315 -143 -606 -320 -904 -510 -1305 -832 -165 -133 -340 -284
-340 -294 0 -5 69 -11 153 -14 106 -4 176 -12 232 -26 101 -26 285 -51 373
-50 37 0 98 8 137 18 l69 18 -54 -49 c-30 -27 -50 -48 -45 -46 19 6 131 66
413 222 693 383 1136 564 1420 582 104 6 238 -10 346 -43 60 -18 60 -19 62
-59 2 -51 24 -94 77 -152 56 -61 161 -127 407 -256 348 -183 458 -268 486
-375 27 -107 -27 -219 -198 -407 -29 -32 -46 -54 -38 -49 220 127 390 348 390
507 0 65 -29 128 -78 169 -56 46 -175 100 -422 189 -280 101 -368 143 -447
215 -65 58 -161 185 -140 185 7 -1 77 -27 157 -60 80 -32 147 -56 149 -54 3 2
-4 11 -15 20 -30 24 -163 112 -177 117 -6 2 -10 7 -7 9 3 3 187 48 410 100
l405 95 -2 58 c-5 134 -69 393 -128 522 -100 215 -242 282 -565 261z m-885
-887 c-11 -4 -36 -11 -55 -14 l-35 -6 30 14 c17 8 41 14 55 14 22 0 23 -1 5
-8z"/>
<path d="M11760 11444 c-189 -36 -370 -94 -953 -305 -844 -306 -1030 -348
-1630 -365 -243 -7 -267 -13 -169 -46 89 -30 219 -48 351 -48 144 0 237 14
419 64 147 41 175 44 170 19 -10 -52 -222 -176 -398 -233 -178 -58 -291 -72
-632 -77 -170 -3 -308 -9 -308 -13 0 -4 19 -12 43 -18 95 -24 222 -35 402 -35
168 0 205 3 320 27 72 15 175 42 230 61 55 19 101 33 102 31 1 -1 -73 -43
-165 -94 -174 -95 -261 -148 -227 -137 11 4 98 33 193 65 242 83 348 105 502
105 153 0 203 -14 428 -120 208 -98 251 -109 422 -102 154 5 346 37 295 48
-16 4 -50 7 -75 8 -25 0 -92 12 -150 26 -268 65 -687 279 -664 338 9 25 54 34
269 57 324 34 455 65 811 189 159 55 178 60 309 70 166 13 226 28 240 59 19
44 96 23 231 -62 48 -31 103 -59 122 -62 53 -10 208 3 292 25 l75 19 -58 1
c-110 2 -151 37 -268 230 -91 152 -145 211 -224 248 -53 24 -73 28 -170 29
-60 1 -121 0 -135 -2z m-640 -356 c0 -13 11 -49 24 -80 l24 -58 -227 0 c-178
1 -222 3 -206 12 35 21 349 147 368 147 11 1 17 -7 17 -21z"/>
<path d="M6593 10545 c-32 -206 -54 -500 -52 -695 1 -96 3 -107 9 -65 26 158
65 697 58 795 -3 41 -4 39 -15 -35z"/>
<path d="M16062 7992 c-24 -50 -27 -61 -12 -47 18 17 57 102 49 108 -2 2 -19
-26 -37 -61z"/>
<path d="M13201 3698 c108 -277 234 -546 316 -673 25 -38 79 -103 120 -143 60
-58 95 -82 176 -122 56 -27 129 -54 162 -60 70 -13 197 -10 202 5 2 6 -23 26
-54 45 -61 36 -355 235 -411 278 -84 64 0 21 245 -125 395 -236 402 -238 98
-28 -118 82 -213 150 -211 152 2 2 39 -17 82 -43 122 -73 333 -172 399 -189
80 -20 136 -19 223 5 103 29 147 26 226 -13 36 -19 66 -33 66 -32 0 1 -61 53
-135 115 -74 63 -133 116 -131 118 3 2 55 -32 118 -75 165 -115 257 -170 324
-194 60 -21 92 -21 244 -3 40 4 66 2 95 -10 37 -15 33 -9 -55 76 -124 122
-200 205 -200 219 0 28 93 -4 263 -90 98 -50 176 -87 173 -82 -3 5 -35 51 -71
102 -162 231 -283 425 -272 435 11 12 48 -19 146 -122 137 -143 300 -298 307
-291 3 3 -10 36 -29 74 -21 41 -43 106 -55 163 -39 186 -89 272 -178 306 -51
19 -125 17 -359 -11 -191 -23 -392 -16 -530 19 -103 25 -263 79 -349 116 -27
11 -50 19 -52 17 -2 -2 60 -39 139 -82 169 -93 221 -125 214 -131 -3 -3 -108
37 -234 89 -266 110 -322 130 -360 125 -27 -4 -26 -6 52 -83 44 -44 64 -68 45
-54 -45 33 -221 154 -239 164 -26 15 2 -21 107 -135 56 -62 102 -116 102 -121
0 -27 -63 6 -324 170 -115 72 -218 134 -230 136 -49 12 -168 35 -177 35 -5 0
1 -24 12 -52z"/>
<path d="M15369 748 c-6 -13 -23 -43 -37 -68 -14 -25 -21 -40 -15 -35 15 14
76 125 69 125 -3 0 -11 -10 -17 -22z"/>
</g>
</svg>
